<?xml version="1.0" encoding="UTF-8" standalone="no"?>
<!DOCTYPE svg PUBLIC "-//W3C//DTD SVG 1.1//EN" "http://www.w3.org/Graphics/SVG/1.1/DTD/svg11.dtd">
<svg xmlns="http://www.w3.org/2000/svg" version="1.1" viewBox="0.00 0.00 300.00 126.00">
<g stroke-width="2.00" fill="none" stroke-linecap="butt">
<path stroke="#5e7d87" vector-effect="non-scaling-stroke" d="
  M 209.98 0.00
  Q 214.40 1.10 219.25 0.67
  Q 219.76 0.62 220.20 0.88
  Q 221.34 1.56 222.72 1.41
  A 3.38 3.24 70.2 0 1 225.88 2.98
  Q 226.24 3.55 226.91 3.36
  A 0.99 0.98 66.2 0 1 228.00 3.79
  Q 228.84 5.13 230.21 6.32
  Q 230.74 6.77 231.37 7.05
  Q 232.05 7.35 232.50 7.98
  Q 232.83 8.46 233.40 8.55
  Q 234.05 8.66 234.37 9.26
  A 1.09 0.99 4.8 0 0 234.76 9.68
  L 238.50 11.96
  Q 238.91 12.22 239.39 12.31
  Q 242.64 12.91 245.02 14.75
  Q 245.46 15.09 246.01 15.03
  Q 247.39 14.88 247.97 16.22
  Q 248.09 16.50 248.38 16.43
  Q 248.57 16.39 248.75 16.50
  Q 249.07 16.70 248.69 16.69
  Q 247.91 16.68 247.54 16.95"
/>
<path stroke="#a4b3b0" vector-effect="non-scaling-stroke" d="
  M 247.54 16.95
  Q 244.71 16.60 244.99 17.73"
/>
<path stroke="#2b4449" vector-effect="non-scaling-stroke" d="
  M 244.99 17.73
  Q 244.12 18.67 244.36 20.72"
/>
<path stroke="#4a697a" vector-effect="non-scaling-stroke" d="
  M 244.36 20.72
  L 237.79 25.19"
/>
<path stroke="#a4b3b0" vector-effect="non-scaling-stroke" d="
  M 237.79 25.19
  L 237.70 17.65
  Q 237.69 17.04 237.08 17.03
  L 226.50 16.87
  Q 226.05 16.86 226.03 17.32
  L 225.93 19.10"
/>
<path stroke="#446376" vector-effect="non-scaling-stroke" d="
  M 225.93 19.10
  L 223.10 23.06
  Q 222.82 23.45 222.99 23.90
  Q 223.33 24.80 222.88 25.56
  Q 222.51 26.20 222.33 26.95
  Q 221.75 29.31 221.63 31.36
  Q 221.56 32.51 221.07 33.60
  Q 220.57 34.71 220.20 35.79
  C 219.80 36.98 218.88 38.22 218.94 39.92"
/>
<path stroke="#a4b3b0" vector-effect="non-scaling-stroke" d="
  M 218.94 39.92
  L 212.62 39.73
  Q 211.99 39.71 211.99 39.08
  L 211.98 17.51
  A 0.52 0.51 -0.6 0 0 211.45 17.00
  L 200.38 17.30"
/>
<path stroke="#4e6e7d" vector-effect="non-scaling-stroke" d="
  M 200.38 17.30
  Q 194.65 19.05 189.10 17.86"
/>
<path stroke="#a4b3b0" vector-effect="non-scaling-stroke" d="
  M 189.10 17.86
  L 189.40 17.46
  Q 189.74 16.99 189.16 16.99
  Q 157.27 17.02 125.36 16.97
  Q 125.14 16.97 125.03 17.15
  Q 124.90 17.37 124.94 17.78"
/>
<path stroke="#4a697a" vector-effect="non-scaling-stroke" d="
  M 124.94 17.78
  Q 124.00 17.02 123.34 17.48
  Q 122.92 17.77 122.90 18.27
  L 122.74 21.56"
/>
<path stroke="#a4b3b0" vector-effect="non-scaling-stroke" d="
  M 122.74 21.56
  L 122.71 17.60
  Q 122.71 17.03 122.14 17.05
  L 111.71 17.40"
/>
<path stroke="#4a697a" vector-effect="non-scaling-stroke" d="
  M 111.71 17.40
  L 109.36 21.14
  Q 109.07 21.60 108.53 21.59
  C 107.88 21.57 107.48 21.77 107.05 22.22
  Q 105.76 23.59 104.61 24.61
  Q 104.14 25.02 104.12 25.65
  Q 104.10 26.27 103.61 26.66
  Q 103.22 26.98 103.01 27.44
  L 99.82 34.34"
/>
<path stroke="#a4b3b0" vector-effect="non-scaling-stroke" d="
  M 99.82 34.34
  L 85.89 17.49
  Q 85.57 17.11 85.08 17.03
  Q 78.59 16.06 77.92 18.51"
/>
<path stroke="#446376" vector-effect="non-scaling-stroke" d="
  M 77.92 18.51
  Q 75.56 22.43 74.04 23.41
  Q 72.08 24.66 71.33 25.35
  Q 71.04 25.61 70.66 25.74
  Q 69.55 26.12 69.55 27.72"
/>
<path stroke="#a4b3b0" vector-effect="non-scaling-stroke" d="
  M 69.55 27.72
  L 69.44 17.62
  Q 69.43 16.99 68.80 16.99
  L 58.52 16.94
  Q 58.01 16.94 57.92 17.44
  Q 57.83 17.94 57.89 18.15"
/>
<path stroke="#4e6e7d" vector-effect="non-scaling-stroke" d="
  M 57.89 18.15
  Q 56.02 21.99 53.50 22.66
  Q 53.06 22.78 52.70 23.06
  Q 49.78 25.41 49.15 29.59
  Q 49.09 30.00 48.83 30.33
  Q 48.38 30.89 48.56 31.54
  Q 48.75 32.22 48.62 32.88
  Q 48.29 34.55 48.45 36.12
  Q 49.15 43.18 49.55 50.18
  Q 49.73 53.25 50.13 56.50
  Q 50.51 59.56 49.35 62.23"
/>
<path stroke="#a4b3b0" vector-effect="non-scaling-stroke" d="
  M 49.35 62.23
  L 25.45 61.91
  A 0.44 0.43 -0.0 0 1 25.01 61.48
  L 24.96 17.49
  A 0.43 0.43 0.0 0 0 24.53 17.07
  L 13.09 17.01"
/>
<path stroke="#4e6e7d" vector-effect="non-scaling-stroke" d="
  M 13.09 17.01
  Q 13.14 16.05 10.16 16.23
  Q 9.83 16.25 9.66 15.98
  Q 9.53 15.78 9.26 15.72
  Q 7.01 15.21 4.71 14.57
  Q 3.36 14.19 2.80 12.94
  A 0.35 0.34 -29.6 0 0 2.28 12.80
  L 1.79 13.16
  Q 1.34 13.49 1.04 13.02
  Q 0.86 12.75 1.01 12.42
  Q 1.32 11.73 0.76 12.24
  Q 0.39 12.59 0.61 13.12
  A 0.27 0.27 0.0 0 1 0.26 13.47
  Q 0.09 13.41 0.00 13.25"
/>
<path stroke="#6b8a91" vector-effect="non-scaling-stroke" d="
  M 300.00 48.01
  Q 299.95 42.02 298.82 36.19
  Q 298.26 33.32 296.82 31.93
  Q 295.41 30.58 293.90 29.14
  Q 293.48 28.73 292.96 29.00
  Q 289.08 31.06 287.37 35.18
  Q 286.42 37.47 285.93 39.93
  Q 285.86 40.24 285.69 40.50
  Q 285.51 40.77 285.25 40.99
  A 1.29 1.26 72.9 0 0 284.82 41.83
  Q 284.55 44.49 283.91 47.24
  Q 283.68 48.23 283.67 49.29
  Q 283.66 50.30 283.31 51.18
  Q 282.98 51.99 282.95 52.89
  Q 282.93 53.70 282.78 54.46
  Q 282.50 55.80 281.65 56.98
  Q 280.26 58.91 281.37 60.56
  Q 281.80 61.20 281.06 61.39
  L 278.92 61.94"
/>
<path stroke="#abbab6" vector-effect="non-scaling-stroke" d="
  M 278.92 61.94
  L 271.20 61.93"
/>
<path stroke="#567583" vector-effect="non-scaling-stroke" d="
  M 271.20 61.93
  Q 272.04 61.01 272.35 59.71
  Q 272.49 59.14 273.08 59.17
  Q 273.37 59.18 273.41 58.84
  Q 273.46 58.40 273.83 58.17
  Q 275.78 56.94 276.99 55.10
  Q 277.67 54.06 278.68 53.08
  Q 279.61 52.17 280.34 50.92"
/>
<path stroke="#abbab6" vector-effect="non-scaling-stroke" d="
  M 280.34 50.92
  Q 280.90 51.13 281.28 50.96
  Q 281.73 50.75 281.71 50.25
  L 281.33 40.53
  Q 281.31 40.01 280.78 39.98
  L 275.45 39.74"
/>
<path stroke="#527180" vector-effect="non-scaling-stroke" d="
  M 275.45 39.74
  L 283.80 28.03"
/>
<path stroke="#abbab6" vector-effect="non-scaling-stroke" d="
  M 283.80 28.03
  Q 284.23 28.09 284.55 27.93
  Q 285.00 27.70 284.99 27.19
  L 284.82 17.49
  A 0.50 0.50 0.0 0 0 284.32 17.00
  L 247.54 16.95"
/>
<path stroke="#9cabac" vector-effect="non-scaling-stroke" d="
  M 13.09 17.01
  L 13.12 71.56
  Q 13.12 72.48 14.04 72.48
  L 41.27 72.53"
/>
<path stroke="#3c5b72" vector-effect="non-scaling-stroke" d="
  M 41.27 72.53
  C 42.38 73.31 43.95 72.06 45.05 73.36
  A 0.41 0.41 0.0 0 1 44.75 74.04
  L 14.45 74.34
  Q 13.40 74.35 14.43 74.57
  Q 18.12 75.34 22.14 75.10
  Q 24.99 74.93 27.88 74.92
  Q 36.34 74.90 44.49 74.60
  C 45.26 74.57 45.84 74.07 46.59 73.84
  Q 47.02 73.71 47.11 73.31
  Q 47.21 72.93 46.66 72.48"
/>
<path stroke="#9cabac" vector-effect="non-scaling-stroke" d="
  M 46.66 72.48
  L 48.90 72.32
  Q 49.45 72.28 49.45 71.72
  L 49.35 62.23"
/>
<path stroke="#9cabac" vector-effect="non-scaling-stroke" d="
  M 57.89 18.15
  L 57.90 71.72
  Q 57.90 72.45 58.63 72.45
  L 66.92 72.47"
/>
<path stroke="#3c5b72" vector-effect="non-scaling-stroke" d="
  M 66.92 72.47
  Q 66.96 72.82 67.15 73.19
  Q 67.48 73.81 66.81 73.83
  Q 66.71 73.83 66.64 73.91
  Q 65.97 74.61 66.92 74.43
  Q 68.45 74.14 69.42 73.19
  Q 69.81 72.81 70.34 72.93
  Q 72.25 73.39 74.29 73.40
  C 75.52 73.40 76.79 74.29 77.80 74.96
  Q 78.72 75.57 79.89 75.67
  Q 82.82 75.94 85.30 75.68
  Q 85.82 75.62 86.17 75.23
  Q 87.23 74.03 88.83 73.69"
/>
<path stroke="#426276" vector-effect="non-scaling-stroke" d="
  M 88.83 73.69
  L 89.59 72.48
  Q 89.82 72.13 89.82 71.71
  Q 89.81 70.02 91.50 70.26
  Q 96.81 71.02 102.80 73.80
  Q 107.66 76.05 115.43 77.57
  Q 116.55 77.79 119.32 77.45
  Q 121.33 77.20 123.16 77.38
  Q 125.74 77.63 128.37 78.10
  Q 129.72 78.34 131.14 78.39
  C 133.51 78.47 135.71 78.68 138.07 78.53
  Q 146.74 78.02 149.25 78.41
  C 151.03 78.70 152.04 78.48 153.67 78.44
  C 158.12 78.32 162.58 78.50 166.99 78.12
  Q 171.99 77.68 176.92 77.35
  Q 180.24 77.13 183.57 75.92
  Q 184.02 75.75 184.20 75.31
  Q 184.57 74.37 185.55 74.01
  A 1.43 1.43 0.0 0 0 186.33 73.30
  Q 186.47 72.98 186.21 72.76
  Q 185.97 72.55 185.63 72.52
  Q 185.31 72.48 184.96 72.46"
/>
<path stroke="#9cabac" vector-effect="non-scaling-stroke" d="
  M 184.96 72.46
  Q 186.22 72.17 186.70 72.24
  Q 188.46 72.50 187.29 71.19
  L 179.88 62.95
  A 3.13 3.10 68.8 0 0 177.57 61.92
  L 148.24 62.00
  A 0.39 0.39 0.0 0 1 147.96 61.34
  L 152.87 56.17"
/>
<path stroke="#426276" vector-effect="non-scaling-stroke" d="
  M 152.87 56.17
  Q 152.79 57.14 154.28 56.45
  Q 154.83 56.20 155.35 55.66
  Q 159.97 50.93 164.63 46.33
  C 165.53 45.44 166.74 45.41 167.26 44.20
  Q 167.45 43.75 167.87 43.52
  Q 169.60 42.59 170.77 40.98
  Q 171.80 39.58 173.09 38.45
  Q 175.39 36.42 177.42 33.87
  Q 177.76 33.44 177.84 32.90
  Q 177.96 32.04 178.63 31.49
  Q 178.88 31.28 178.98 30.96
  Q 179.03 30.76 179.01 30.57
  Q 178.93 30.06 178.45 30.26
  Q 177.92 30.47 177.63 30.14"
/>
<path stroke="#9cabac" vector-effect="non-scaling-stroke" d="
  M 177.63 30.14
  L 189.10 17.86"
/>
<path stroke="#9cabac" vector-effect="non-scaling-stroke" d="
  M 200.38 17.30
  L 200.67 39.40
  Q 200.68 40.03 200.05 40.01
  L 187.48 39.66
  Q 186.85 39.65 186.86 40.27
  L 187.05 50.28
  A 0.72 0.72 0.0 0 0 187.78 50.98
  L 199.82 50.88
  Q 200.51 50.88 200.51 51.57
  L 200.53 72.02
  A 0.49 0.48 -0.0 0 0 201.02 72.50
  L 211.42 72.43
  Q 212.01 72.42 212.00 71.83
  L 211.95 51.53
  Q 211.95 51.00 212.48 51.00
  L 225.48 50.94
  Q 226.02 50.94 226.01 51.48
  L 225.79 59.04"
/>
<path stroke="#233c45" vector-effect="non-scaling-stroke" d="
  M 225.79 59.04
  Q 224.69 65.26 225.08 71.70
  A 1.80 1.79 -0.3 0 0 226.80 73.39
  Q 229.28 73.51 227.48 72.57"
/>
<path stroke="#9cabac" vector-effect="non-scaling-stroke" d="
  M 227.48 72.57
  L 237.34 72.35
  Q 237.86 72.34 237.86 71.82
  L 237.92 62.98"
/>
<path stroke="#426276" vector-effect="non-scaling-stroke" d="
  M 237.92 62.98
  Q 238.62 62.38 238.63 61.95
  A 1.34 1.33 10.8 0 1 240.42 60.74
  Q 243.60 61.90 244.03 66.37"
/>
<path stroke="#233c45" vector-effect="non-scaling-stroke" d="
  M 244.03 66.37
  C 244.20 68.06 243.73 70.17 244.07 71.79
  Q 244.55 74.06 244.99 72.50"
/>
<path stroke="#9cabac" vector-effect="non-scaling-stroke" d="
  M 244.99 72.50
  L 284.65 72.45"
/>
<path stroke="#5c7b87" vector-effect="non-scaling-stroke" d="
  M 284.65 72.45
  Q 283.26 74.61 281.74 75.59"
/>
<path stroke="#4e6e7d" vector-effect="non-scaling-stroke" d="
  M 281.74 75.59
  Q 274.20 79.78 265.83 80.64
  Q 264.77 80.75 256.17 81.11
  Q 251.65 81.30 246.50 81.04
  Q 245.29 80.98 244.14 80.67
  Q 242.94 80.35 241.84 79.80
  Q 239.57 78.66 237.14 78.38
  Q 235.46 78.19 233.81 79.01
  A 0.73 0.73 0.0 0 1 233.20 79.03
  Q 232.50 78.74 232.02 79.34
  Q 231.78 79.65 231.39 79.69
  C 229.38 79.93 227.46 80.36 225.47 79.64
  Q 220.77 77.92 216.09 76.82
  Q 214.01 76.33 211.84 76.46
  Q 209.45 76.60 207.70 77.74
  Q 205.61 79.12 203.28 79.98
  Q 199.89 81.24 196.44 80.35
  Q 193.68 79.64 191.15 79.39
  Q 188.72 79.14 185.98 78.43
  Q 185.48 78.30 185.00 78.48
  Q 181.42 79.81 178.08 81.34
  Q 174.38 83.04 165.12 83.46
  Q 164.69 83.48 164.30 83.66
  Q 163.92 83.84 163.50 83.83
  Q 156.99 83.69 150.54 83.94
  Q 146.65 84.09 143.43 83.95
  Q 139.98 83.80 136.36 83.95
  Q 131.09 84.16 125.69 83.91
  Q 113.71 83.35 100.55 81.51
  Q 100.34 81.48 100.22 81.31
  Q 100.02 81.02 99.67 80.95
  Q 94.73 80.00 90.09 79.81
  Q 88.25 79.74 86.15 80.28
  Q 84.30 80.75 82.80 81.89
  Q 81.25 83.06 79.25 83.31
  Q 78.00 83.47 76.76 83.61
  Q 75.46 83.75 74.22 83.68
  Q 71.27 83.52 68.36 83.74
  Q 67.28 83.83 66.24 83.63
  Q 65.04 83.40 63.89 83.63
  Q 58.10 84.82 51.70 84.58
  Q 48.06 84.44 44.32 84.66
  Q 40.83 84.86 37.01 85.38
  Q 32.09 86.06 25.83 85.94
  Q 23.39 85.89 21.17 85.56
  Q 18.69 85.19 16.37 85.14
  Q 12.33 85.05 9.62 83.75
  Q 2.88 80.50 1.89 72.99
  Q 0.70 63.88 0.00 60.59"
/>
<path stroke="#3c5b72" vector-effect="non-scaling-stroke" d="
  M 58.60 74.25
  L 58.58 74.87
  A 0.14 0.14 0.0 0 0 58.72 75.01
  L 58.89 75.02
  A 7.35 0.41 2.1 0 0 66.25 74.88
  L 66.25 74.80
  A 7.35 0.41 2.1 0 0 58.92 74.12
  L 58.75 74.12
  A 0.14 0.14 0.0 0 0 58.60 74.25"
/>
<path stroke="#98a7a9" vector-effect="non-scaling-stroke" d="
  M 237.79 25.19
  L 237.92 62.98"
/>
<path stroke="#798178" vector-effect="non-scaling-stroke" d="
  M 227.48 72.57
  Q 225.82 73.20 225.83 71.75
  Q 225.93 62.17 225.79 59.04"
/>
<path stroke="#92a0a5" vector-effect="non-scaling-stroke" d="
  M 218.94 39.92
  L 225.58 39.87
  Q 226.11 39.87 226.10 39.35
  L 225.93 19.10"
/>
<path stroke="#92a0a5" vector-effect="non-scaling-stroke" d="
  M 46.66 72.48
  L 41.27 72.53"
/>
<path stroke="#92a0a5" vector-effect="non-scaling-stroke" d="
  M 69.55 27.72
  L 69.63 71.88
  Q 69.63 72.39 69.12 72.40
  L 66.92 72.47"
/>
<path stroke="#98a7a9" vector-effect="non-scaling-stroke" d="
  M 99.82 34.34
  L 111.08 47.98
  Q 111.76 48.80 111.76 47.73
  L 111.71 17.40"
/>
<path stroke="#98a7a9" vector-effect="non-scaling-stroke" d="
  M 122.74 21.56
  L 122.94 71.76
  Q 122.94 72.26 122.45 72.33
  Q 118.81 72.85 115.35 72.14"
/>
<path stroke="#92a0a5" vector-effect="non-scaling-stroke" d="
  M 115.35 72.14
  L 89.64 41.20
  A 0.38 0.38 0.0 0 0 88.97 41.45
  L 89.23 51.29"
/>
<path stroke="#98a7a9" vector-effect="non-scaling-stroke" d="
  M 89.23 51.29
  L 88.99 72.50"
/>
<path stroke="#92a0a5" vector-effect="non-scaling-stroke" d="
  M 88.99 72.50
  L 79.30 72.51
  Q 78.07 72.51 78.06 71.28
  L 77.92 18.51"
/>
<path stroke="#98a7a9" vector-effect="non-scaling-stroke" d="
  M 177.63 30.14
  L 152.87 56.17"
/>
<path stroke="#98a7a9" vector-effect="non-scaling-stroke" d="
  M 184.96 72.46
  L 125.54 72.50
  A 0.52 0.51 -1.8 0 1 125.02 72.02
  C 124.91 70.54 124.64 67.69 125.81 66.53
  Q 146.41 46.15 164.17 28.48
  A 0.31 0.30 22.5 0 0 163.95 27.96
  L 125.77 27.99
  A 0.50 0.49 -0.6 0 1 125.27 27.51
  L 124.94 17.78"
/>
<path stroke="#98a7a9" vector-effect="non-scaling-stroke" d="
  M 283.80 28.03
  L 257.36 28.06
  Q 256.68 28.06 256.69 28.74
  L 256.96 39.20
  Q 256.97 39.75 257.52 39.75
  L 275.45 39.74"
/>
<path stroke="#9cabac" vector-effect="non-scaling-stroke" d="
  M 280.34 50.92
  L 257.25 50.94
  Q 256.68 50.94 256.68 51.52
  L 256.80 61.26
  A 0.58 0.58 0.0 0 0 257.38 61.83
  L 271.20 61.93"
/>
<path stroke="#b1c0ba" vector-effect="non-scaling-stroke" d="
  M 278.92 61.94
  L 284.40 62.12
  Q 284.95 62.14 284.93 62.69
  L 284.65 72.45"
/>
<path stroke="#798178" vector-effect="non-scaling-stroke" d="
  M 244.99 72.50
  L 244.99 17.73"
/>
<path stroke="#38576e" vector-effect="non-scaling-stroke" d="
  M 88.83 73.69
  Q 88.74 73.26 88.99 72.50"
/>
<path stroke="#38576e" vector-effect="non-scaling-stroke" d="
  M 89.23 51.29
  Q 89.92 51.17 90.85 49.38
  A 0.10 0.10 0.0 0 1 91.00 49.35
  Q 92.96 50.70 94.99 51.98
  Q 96.53 52.95 97.69 54.15
  Q 99.00 55.50 100.27 56.82
  Q 100.43 56.99 100.66 57.02
  Q 101.02 57.08 101.27 57.34
  Q 103.02 59.16 104.47 61.23
  Q 105.90 63.25 107.59 65.12
  Q 110.45 68.26 112.83 71.18
  Q 113.36 71.83 113.83 72.17
  Q 115.13 73.11 115.35 72.14"
/>
<path stroke="#1f3842" vector-effect="non-scaling-stroke" d="
  M 244.03 66.37
  L 244.36 20.72"
/>
<path stroke="#7f9a9d" vector-effect="non-scaling-stroke" d="
  M 300.00 75.63
  Q 299.47 75.15 298.99 75.40
  Q 298.74 75.52 298.68 75.79
  Q 298.61 76.05 298.70 76.32
  Q 298.73 76.40 298.64 76.40
  L 298.07 76.39
  Q 297.76 76.39 297.52 76.57
  Q 286.43 84.78 277.22 90.29
  Q 268.96 95.23 260.91 97.32
  Q 254.16 99.08 247.01 99.82
  Q 242.25 100.32 237.39 100.79
  C 236.22 100.90 235.42 100.56 234.22 100.72
  Q 228.02 101.51 221.67 102.58
  Q 220.26 102.82 218.91 103.27
  Q 217.55 103.71 216.17 103.74
  C 214.48 103.77 213.21 104.67 211.74 105.34
  A 0.74 0.73 70.0 0 0 211.34 106.21
  Q 211.51 106.83 210.98 107.23
  Q 210.77 107.39 210.54 107.26
  Q 210.50 107.23 210.48 107.19
  Q 210.27 106.77 209.90 107.10
  Q 209.73 107.26 209.61 107.28"
/>
<path stroke="#b1c0ba" vector-effect="non-scaling-stroke" d="
  M 209.61 107.28
  Q 207.33 106.25 205.08 105.41
  Q 204.52 105.20 204.19 104.74
  Q 203.86 104.28 204.07 103.76
  Q 204.39 102.97 205.24 102.93
  Q 206.83 102.85 208.40 103.56
  Q 209.62 104.11 209.91 102.80
  L 210.16 101.63
  A 1.40 1.39 -74.9 0 0 209.23 100.00
  Q 205.87 98.91 203.33 99.83
  Q 200.82 100.74 200.01 102.91"
/>
<path stroke="#527080" vector-effect="non-scaling-stroke" d="
  M 200.01 102.91
  Q 196.99 105.40 200.57 108.18
  Q 201.49 108.89 202.15 110.80"
/>
<path stroke="#b1c0ba" vector-effect="non-scaling-stroke" d="
  M 202.15 110.80
  Q 201.07 111.64 200.51 113.57
  Q 200.37 114.06 200.78 114.37
  Q 204.20 116.93 208.57 115.44"
/>
<path stroke="#7f9a9d" vector-effect="non-scaling-stroke" d="
  M 208.57 115.44
  Q 207.95 117.82 205.61 118.30
  Q 205.06 118.41 204.77 118.88
  Q 203.24 121.37 200.17 121.40
  Q 196.98 121.42 193.84 121.10
  Q 193.30 121.04 192.90 120.66
  Q 192.53 120.31 192.01 120.34
  Q 188.99 120.50 186.00 120.63
  Q 185.43 120.66 184.93 120.95
  Q 184.49 121.21 184.03 120.98
  Q 183.42 120.66 182.96 121.18
  Q 182.72 121.44 182.39 121.54
  Q 180.90 121.99 179.67 121.51
  Q 179.25 121.34 178.80 121.39
  Q 176.93 121.57 175.13 120.99
  Q 172.38 120.10 169.90 119.32
  Q 168.14 118.76 166.79 120.02
  Q 166.70 120.11 166.58 120.08
  Q 166.52 120.06 166.52 120.01
  Q 166.49 119.73 166.21 119.88
  Q 162.65 121.74 159.03 122.37
  Q 155.35 123.02 151.44 121.46
  Q 149.65 120.74 148.10 119.17
  Q 146.57 117.62 145.09 116.03
  Q 144.40 115.29 143.47 115.08
  Q 142.49 114.87 141.49 114.69
  Q 140.98 114.60 140.56 114.91
  Q 138.84 116.15 137.04 116.83
  Q 135.52 117.41 134.74 119.06
  Q 134.50 119.56 134.01 119.79
  Q 132.52 120.49 131.49 121.75
  Q 131.39 121.87 131.24 121.87
  L 130.74 121.87
  Q 130.22 121.87 129.92 122.30
  Q 128.74 124.04 126.75 123.88
  A 0.47 0.47 0.0 0 0 126.26 124.49
  Q 126.39 124.90 126.08 125.02
  Q 125.28 125.32 126.01 125.73
  Q 126.27 125.88 126.50 126.00"
/>
<path stroke="#7f9a9d" vector-effect="non-scaling-stroke" d="
  M 111.40 126.00
  L 116.10 125.13
  Q 116.54 125.05 116.66 124.62
  Q 116.80 124.13 116.33 124.08
  Q 115.78 124.02 115.67 123.48
  Q 115.56 122.95 115.25 122.46
  Q 115.15 122.30 115.03 122.45
  Q 114.93 122.57 114.77 122.60
  Q 114.46 122.64 114.31 122.37
  Q 113.62 121.09 112.24 120.95
  A 0.60 0.46 53.0 0 1 112.10 120.91
  L 108.59 119.29
  A 0.41 0.41 0.0 0 0 108.04 119.50
  Q 107.54 120.66 106.62 119.79
  Q 106.14 119.34 105.79 119.89
  Q 105.40 120.50 104.64 120.67
  Q 102.49 121.17 100.48 121.16
  Q 100.03 121.15 99.67 120.87
  Q 99.23 120.50 98.79 120.91
  Q 98.27 121.39 97.85 120.81
  Q 97.55 120.39 97.02 120.53
  Q 93.87 121.32 91.34 120.96
  C 90.02 120.77 88.81 121.03 87.51 120.59
  Q 86.15 120.13 85.26 118.96
  Q 83.99 117.28 82.06 116.77
  Q 81.54 116.63 81.14 116.26
  Q 79.15 114.41 76.50 113.98
  A 2.16 2.14 67.0 0 1 75.62 113.62
  Q 73.39 112.03 70.65 112.96
  A 1.95 1.94 12.8 0 0 69.87 113.45
  Q 69.10 114.24 68.11 113.73
  A 1.59 1.58 -32.3 0 0 67.30 113.55
  L 59.41 113.94
  Q 59.31 113.95 59.33 114.04
  Q 59.38 114.22 59.37 114.38
  Q 59.34 114.74 58.98 114.79
  Q 56.93 115.07 54.98 114.91
  Q 50.13 114.54 45.71 114.90
  Q 44.95 114.96 44.21 114.74
  Q 43.72 114.60 43.23 114.68
  Q 32.31 116.54 25.25 115.94
  Q 10.78 114.72 0.00 117.18"
/>
<path stroke="#64828b" vector-effect="non-scaling-stroke" d="
  M 0.00 80.47
  Q 0.65 84.95 3.36 88.39
  A 1.42 1.39 -12.3 0 0 4.17 88.90
  C 5.20 89.15 6.18 89.60 7.11 89.77
  Q 13.88 90.97 19.89 90.86
  Q 23.23 90.80 26.86 91.17
  Q 30.38 91.53 33.99 91.08
  Q 42.91 89.96 51.40 90.20
  Q 55.04 90.30 58.60 90.08
  Q 62.18 89.85 65.86 89.80
  Q 68.51 89.77 71.00 89.55
  Q 73.49 89.33 76.01 88.91
  Q 80.24 88.19 84.47 88.12
  A 0.45 0.43 66.9 0 1 84.78 88.25
  Q 84.92 88.39 85.11 88.38
  Q 91.84 87.89 97.18 88.70
  Q 101.39 89.35 105.48 89.10
  Q 109.81 88.84 113.87 89.10
  Q 122.30 89.63 131.70 90.03
  Q 134.91 90.17 138.14 89.94
  Q 141.45 89.71 144.67 89.58
  Q 145.03 89.57 145.40 89.64
  Q 145.79 89.71 146.00 89.36
  A 0.66 0.64 15.3 0 1 146.58 89.04
  Q 157.18 89.39 167.91 88.77
  C 170.59 88.61 173.05 87.66 175.65 87.28
  Q 176.22 87.20 176.48 86.69
  Q 176.59 86.46 176.80 86.33
  Q 177.25 86.05 177.79 85.99
  Q 184.37 85.30 191.37 85.79
  Q 195.21 86.06 199.18 85.70
  Q 201.45 85.49 203.73 84.96
  Q 205.89 84.47 208.30 84.30
  Q 215.57 83.79 222.54 85.08
  Q 223.43 85.24 224.32 85.08
  C 225.78 84.81 227.05 85.25 228.59 84.92
  Q 233.24 83.91 236.00 84.37
  Q 243.33 85.61 248.58 85.78
  Q 253.45 85.94 258.78 85.91
  Q 262.07 85.89 265.29 85.19
  Q 268.76 84.44 272.16 83.54
  Q 274.01 83.05 275.44 81.81
  C 276.23 81.13 277.28 81.04 277.97 80.61
  Q 280.13 79.27 281.74 75.59"
/>
<path stroke="#64828b" vector-effect="non-scaling-stroke" d="
  M 124.54 105.57
  Q 124.19 104.73 121.64 106.37
  Q 121.42 106.51 121.38 106.70
  Q 121.32 106.95 121.51 106.77
  Q 122.32 105.99 123.10 106.37"
/>
<path stroke="#6b8a91" vector-effect="non-scaling-stroke" d="
  M 123.10 106.37
  Q 120.83 107.06 120.86 108.76
  Q 120.87 109.84 120.88 110.90
  Q 120.89 112.08 121.43 112.91
  Q 123.82 116.67 128.51 117.15"
/>
<path stroke="#64828b" vector-effect="non-scaling-stroke" d="
  M 128.51 117.15
  L 133.87 116.97
  A 0.55 0.43 -33.9 0 0 134.18 116.04
  L 133.72 115.96"
/>
<path stroke="#b1c0ba" vector-effect="non-scaling-stroke" d="
  M 133.72 115.96
  C 145.26 113.76 141.70 98.48 131.75 99.52
  Q 126.22 100.10 124.54 105.57"
/>
<path stroke="#a4b3b0" vector-effect="non-scaling-stroke" d="
  M 133.72 115.96
  Q 123.57 115.75 124.54 105.57"
/>
<path stroke="#5e7d87" vector-effect="non-scaling-stroke" d="
  M 128.51 117.15
  Q 127.42 116.00 125.83 115.74
  Q 125.16 115.62 124.80 115.05
  Q 124.29 114.24 123.42 113.86
  A 2.25 2.24 0.4 0 1 122.22 112.65
  Q 120.93 109.53 123.10 106.37"
/>
<path stroke="#b1c0ba" vector-effect="non-scaling-stroke" d="
  M 173.5929 110.2882
  A 8.53 8.20 17.1 0 0 167.8511 99.9425
  A 8.53 8.20 17.1 0 0 157.2871 105.2718
  A 8.53 8.20 17.1 0 0 163.0289 115.6175
  A 8.53 8.20 17.1 0 0 173.5929 110.2882"
/>
<path stroke="#b1c0ba" vector-effect="non-scaling-stroke" d="
  M 99.02 103.53
  A 0.80 0.80 0.0 0 1 99.78 104.33
  L 99.84 114.90
  A 0.80 0.80 0.0 0 0 100.63 115.70
  L 102.59 115.72
  A 0.80 0.80 0.0 0 0 103.40 114.91
  L 103.32 104.27
  A 0.80 0.80 0.0 0 1 104.11 103.47
  L 107.45 103.46
  A 0.80 0.80 0.0 0 0 108.24 102.63
  L 108.16 100.68
  A 0.80 0.80 0.0 0 0 107.35 99.91
  L 95.28 100.06
  A 0.80 0.80 0.0 0 0 94.50 100.94
  L 94.67 102.64
  A 0.80 0.80 0.0 0 0 95.43 103.36
  L 99.02 103.53"
/>
<path stroke="#b1c0ba" vector-effect="non-scaling-stroke" d="
  M 186.49 111.91
  A 0.36 0.36 0.0 0 1 186.15 111.55
  L 186.12 100.41
  A 0.36 0.36 0.0 0 0 185.77 100.05
  L 182.75 99.99
  A 0.36 0.36 0.0 0 0 182.38 100.35
  L 182.53 115.22
  A 0.36 0.36 0.0 0 0 182.89 115.58
  L 193.67 115.49
  A 0.36 0.36 0.0 0 0 194.02 115.13
  L 193.98 112.60
  A 0.36 0.36 0.0 0 0 193.63 112.24
  L 186.49 111.91"
/>
<path stroke="#7f9a9d" vector-effect="non-scaling-stroke" d="
  M 36.0592 107.4057
  A 0.54 0.54 0.0 0 0 35.5108 106.8742
  L 25.8520 107.0259
  A 0.54 0.54 0.0 0 0 25.3205 107.5743
  L 25.3208 107.5943
  A 0.54 0.54 0.0 0 0 25.8692 108.1258
  L 35.5280 107.9741
  A 0.54 0.54 0.0 0 0 36.0595 107.4257
  L 36.0592 107.4057"
/>
<path stroke="#7f9a9d" vector-effect="non-scaling-stroke" d="
  M 71.4989 107.6691
  A 0.54 0.54 0.0 0 0 70.9675 107.1207
  L 51.7898 106.8194
  A 0.54 0.54 0.0 0 0 51.2414 107.3509
  L 51.2411 107.3709
  A 0.54 0.54 0.0 0 0 51.7725 107.9193
  L 70.9502 108.2206
  A 0.54 0.54 0.0 0 0 71.4986 107.6891
  L 71.4989 107.6691"
/>
<path stroke="#bfcac2" vector-effect="non-scaling-stroke" d="
  M 208.57 115.44
  Q 213.08 111.75 209.61 107.28"
/>
<path stroke="#9cabac" vector-effect="non-scaling-stroke" d="
  M 136.6853 107.1750
  A 3.61 3.61 0.0 0 0 133.1069 103.5337
  L 132.3069 103.5267
  A 3.61 3.61 0.0 0 0 128.6656 107.1050
  L 128.6547 108.3450
  A 3.61 3.61 0.0 0 0 132.2331 111.9863
  L 133.0331 111.9933
  A 3.61 3.61 0.0 0 0 136.6744 108.4150
  L 136.6853 107.1750"
/>
<path stroke="#a4b3b0" vector-effect="non-scaling-stroke" d="
  M 169.78 107.80
  A 4.35 4.35 0.0 0 0 165.43 103.45
  A 4.35 4.35 0.0 0 0 161.08 107.80
  A 4.35 4.35 0.0 0 0 165.43 112.15
  A 4.35 4.35 0.0 0 0 169.78 107.80"
/>
<path stroke="#92a0a5" vector-effect="non-scaling-stroke" d="
  M 202.15 110.80
  Q 203.64 112.80 205.39 112.39
  Q 208.78 111.59 205.77 109.84
  C 202.50 107.95 199.28 108.41 200.01 102.91"
/>
</g>
<path fill="#567581" d="
  M 0.00 0.00
  L 209.98 0.00
  Q 214.40 1.10 219.25 0.67
  Q 219.76 0.62 220.20 0.88
  Q 221.34 1.56 222.72 1.41
  A 3.38 3.24 70.2 0 1 225.88 2.98
  Q 226.24 3.55 226.91 3.36
  A 0.99 0.98 66.2 0 1 228.00 3.79
  Q 228.84 5.13 230.21 6.32
  Q 230.74 6.77 231.37 7.05
  Q 232.05 7.35 232.50 7.98
  Q 232.83 8.46 233.40 8.55
  Q 234.05 8.66 234.37 9.26
  A 1.09 0.99 4.8 0 0 234.76 9.68
  L 238.50 11.96
  Q 238.91 12.22 239.39 12.31
  Q 242.64 12.91 245.02 14.75
  Q 245.46 15.09 246.01 15.03
  Q 247.39 14.88 247.97 16.22
  Q 248.09 16.50 248.38 16.43
  Q 248.57 16.39 248.75 16.50
  Q 249.07 16.70 248.69 16.69
  Q 247.91 16.68 247.54 16.95
  Q 244.71 16.60 244.99 17.73
  Q 244.12 18.67 244.36 20.72
  L 237.79 25.19
  L 237.70 17.65
  Q 237.69 17.04 237.08 17.03
  L 226.50 16.87
  Q 226.05 16.86 226.03 17.32
  L 225.93 19.10
  L 223.10 23.06
  Q 222.82 23.45 222.99 23.90
  Q 223.33 24.80 222.88 25.56
  Q 222.51 26.20 222.33 26.95
  Q 221.75 29.31 221.63 31.36
  Q 221.56 32.51 221.07 33.60
  Q 220.57 34.71 220.20 35.79
  C 219.80 36.98 218.88 38.22 218.94 39.92
  L 212.62 39.73
  Q 211.99 39.71 211.99 39.08
  L 211.98 17.51
  A 0.52 0.51 -0.6 0 0 211.45 17.00
  L 200.38 17.30
  Q 194.65 19.05 189.10 17.86
  L 189.40 17.46
  Q 189.74 16.99 189.16 16.99
  Q 157.27 17.02 125.36 16.97
  Q 125.14 16.97 125.03 17.15
  Q 124.90 17.37 124.94 17.78
  Q 124.00 17.02 123.34 17.48
  Q 122.92 17.77 122.90 18.27
  L 122.74 21.56
  L 122.71 17.60
  Q 122.71 17.03 122.14 17.05
  L 111.71 17.40
  L 109.36 21.14
  Q 109.07 21.60 108.53 21.59
  C 107.88 21.57 107.48 21.77 107.05 22.22
  Q 105.76 23.59 104.61 24.61
  Q 104.14 25.02 104.12 25.65
  Q 104.10 26.27 103.61 26.66
  Q 103.22 26.98 103.01 27.44
  L 99.82 34.34
  L 85.89 17.49
  Q 85.57 17.11 85.08 17.03
  Q 78.59 16.06 77.92 18.51
  Q 75.56 22.43 74.04 23.41
  Q 72.08 24.66 71.33 25.35
  Q 71.04 25.61 70.66 25.74
  Q 69.55 26.12 69.55 27.72
  L 69.44 17.62
  Q 69.43 16.99 68.80 16.99
  L 58.52 16.94
  Q 58.01 16.94 57.92 17.44
  Q 57.83 17.94 57.89 18.15
  Q 56.02 21.99 53.50 22.66
  Q 53.06 22.78 52.70 23.06
  Q 49.78 25.41 49.15 29.59
  Q 49.09 30.00 48.83 30.33
  Q 48.38 30.89 48.56 31.54
  Q 48.75 32.22 48.62 32.88
  Q 48.29 34.55 48.45 36.12
  Q 49.15 43.18 49.55 50.18
  Q 49.73 53.25 50.13 56.50
  Q 50.51 59.56 49.35 62.23
  L 25.45 61.91
  A 0.44 0.43 -0.0 0 1 25.01 61.48
  L 24.96 17.49
  A 0.43 0.43 0.0 0 0 24.53 17.07
  L 13.09 17.01
  Q 13.14 16.05 10.16 16.23
  Q 9.83 16.25 9.66 15.98
  Q 9.53 15.78 9.26 15.72
  Q 7.01 15.21 4.71 14.57
  Q 3.36 14.19 2.80 12.94
  A 0.35 0.34 -29.6 0 0 2.28 12.80
  L 1.79 13.16
  Q 1.34 13.49 1.04 13.02
  Q 0.86 12.75 1.01 12.42
  Q 1.32 11.73 0.76 12.24
  Q 0.39 12.59 0.61 13.12
  A 0.27 0.27 0.0 0 1 0.26 13.47
  Q 0.09 13.41 0.00 13.25
  L 0.00 0.00
  Z"
/>
<path fill="#65848d" d="
  M 209.98 0.00
  L 300.00 0.00
  L 300.00 48.01
  Q 299.95 42.02 298.82 36.19
  Q 298.26 33.32 296.82 31.93
  Q 295.41 30.58 293.90 29.14
  Q 293.48 28.73 292.96 29.00
  Q 289.08 31.06 287.37 35.18
  Q 286.42 37.47 285.93 39.93
  Q 285.86 40.24 285.69 40.50
  Q 285.51 40.77 285.25 40.99
  A 1.29 1.26 72.9 0 0 284.82 41.83
  Q 284.55 44.49 283.91 47.24
  Q 283.68 48.23 283.67 49.29
  Q 283.66 50.30 283.31 51.18
  Q 282.98 51.99 282.95 52.89
  Q 282.93 53.70 282.78 54.46
  Q 282.50 55.80 281.65 56.98
  Q 280.26 58.91 281.37 60.56
  Q 281.80 61.20 281.06 61.39
  L 278.92 61.94
  L 271.20 61.93
  Q 272.04 61.01 272.35 59.71
  Q 272.49 59.14 273.08 59.17
  Q 273.37 59.18 273.41 58.84
  Q 273.46 58.40 273.83 58.17
  Q 275.78 56.94 276.99 55.10
  Q 277.67 54.06 278.68 53.08
  Q 279.61 52.17 280.34 50.92
  Q 280.90 51.13 281.28 50.96
  Q 281.73 50.75 281.71 50.25
  L 281.33 40.53
  Q 281.31 40.01 280.78 39.98
  L 275.45 39.74
  L 283.80 28.03
  Q 284.23 28.09 284.55 27.93
  Q 285.00 27.70 284.99 27.19
  L 284.82 17.49
  A 0.50 0.50 0.0 0 0 284.32 17.00
  L 247.54 16.95
  Q 247.91 16.68 248.69 16.69
  Q 249.07 16.70 248.75 16.50
  Q 248.57 16.39 248.38 16.43
  Q 248.09 16.50 247.97 16.22
  Q 247.39 14.88 246.01 15.03
  Q 245.46 15.09 245.02 14.75
  Q 242.64 12.91 239.39 12.31
  Q 238.91 12.22 238.50 11.96
  L 234.76 9.68
  A 1.09 0.99 4.8 0 1 234.37 9.26
  Q 234.05 8.66 233.40 8.55
  Q 232.83 8.46 232.50 7.98
  Q 232.05 7.35 231.37 7.05
  Q 230.74 6.77 230.21 6.32
  Q 228.84 5.13 228.00 3.79
  A 0.99 0.98 66.2 0 0 226.91 3.36
  Q 226.24 3.55 225.88 2.98
  A 3.38 3.24 70.2 0 0 222.72 1.41
  Q 221.34 1.56 220.20 0.88
  Q 219.76 0.62 219.25 0.67
  Q 214.40 1.10 209.98 0.00
  Z"
/>
<path fill="#466679" d="
  M 13.09 17.01
  L 13.12 71.56
  Q 13.12 72.48 14.04 72.48
  L 41.27 72.53
  C 42.38 73.31 43.95 72.06 45.05 73.36
  A 0.41 0.41 0.0 0 1 44.75 74.04
  L 14.45 74.34
  Q 13.40 74.35 14.43 74.57
  Q 18.12 75.34 22.14 75.10
  Q 24.99 74.93 27.88 74.92
  Q 36.34 74.90 44.49 74.60
  C 45.26 74.57 45.84 74.07 46.59 73.84
  Q 47.02 73.71 47.11 73.31
  Q 47.21 72.93 46.66 72.48
  L 48.90 72.32
  Q 49.45 72.28 49.45 71.72
  L 49.35 62.23
  Q 50.51 59.56 50.13 56.50
  Q 49.73 53.25 49.55 50.18
  Q 49.15 43.18 48.45 36.12
  Q 48.29 34.55 48.62 32.88
  Q 48.75 32.22 48.56 31.54
  Q 48.38 30.89 48.83 30.33
  Q 49.09 30.00 49.15 29.59
  Q 49.78 25.41 52.70 23.06
  Q 53.06 22.78 53.50 22.66
  Q 56.02 21.99 57.89 18.15
  L 57.90 71.72
  Q 57.90 72.45 58.63 72.45
  L 66.92 72.47
  Q 66.96 72.82 67.15 73.19
  Q 67.48 73.81 66.81 73.83
  Q 66.71 73.83 66.64 73.91
  Q 65.97 74.61 66.92 74.43
  Q 68.45 74.14 69.42 73.19
  Q 69.81 72.81 70.34 72.93
  Q 72.25 73.39 74.29 73.40
  C 75.52 73.40 76.79 74.29 77.80 74.96
  Q 78.72 75.57 79.89 75.67
  Q 82.82 75.94 85.30 75.68
  Q 85.82 75.62 86.17 75.23
  Q 87.23 74.03 88.83 73.69
  L 89.59 72.48
  Q 89.82 72.13 89.82 71.71
  Q 89.81 70.02 91.50 70.26
  Q 96.81 71.02 102.80 73.80
  Q 107.66 76.05 115.43 77.57
  Q 116.55 77.79 119.32 77.45
  Q 121.33 77.20 123.16 77.38
  Q 125.74 77.63 128.37 78.10
  Q 129.72 78.34 131.14 78.39
  C 133.51 78.47 135.71 78.68 138.07 78.53
  Q 146.74 78.02 149.25 78.41
  C 151.03 78.70 152.04 78.48 153.67 78.44
  C 158.12 78.32 162.58 78.50 166.99 78.12
  Q 171.99 77.68 176.92 77.35
  Q 180.24 77.13 183.57 75.92
  Q 184.02 75.75 184.20 75.31
  Q 184.57 74.37 185.55 74.01
  A 1.43 1.43 0.0 0 0 186.33 73.30
  Q 186.47 72.98 186.21 72.76
  Q 185.97 72.55 185.63 72.52
  Q 185.31 72.48 184.96 72.46
  Q 186.22 72.17 186.70 72.24
  Q 188.46 72.50 187.29 71.19
  L 179.88 62.95
  A 3.13 3.10 68.8 0 0 177.57 61.92
  L 148.24 62.00
  A 0.39 0.39 0.0 0 1 147.96 61.34
  L 152.87 56.17
  Q 152.79 57.14 154.28 56.45
  Q 154.83 56.20 155.35 55.66
  Q 159.97 50.93 164.63 46.33
  C 165.53 45.44 166.74 45.41 167.26 44.20
  Q 167.45 43.75 167.87 43.52
  Q 169.60 42.59 170.77 40.98
  Q 171.80 39.58 173.09 38.45
  Q 175.39 36.42 177.42 33.87
  Q 177.76 33.44 177.84 32.90
  Q 177.96 32.04 178.63 31.49
  Q 178.88 31.28 178.98 30.96
  Q 179.03 30.76 179.01 30.57
  Q 178.93 30.06 178.45 30.26
  Q 177.92 30.47 177.63 30.14
  L 189.10 17.86
  Q 194.65 19.05 200.38 17.30
  L 200.67 39.40
  Q 200.68 40.03 200.05 40.01
  L 187.48 39.66
  Q 186.85 39.65 186.86 40.27
  L 187.05 50.28
  A 0.72 0.72 0.0 0 0 187.78 50.98
  L 199.82 50.88
  Q 200.51 50.88 200.51 51.57
  L 200.53 72.02
  A 0.49 0.48 -0.0 0 0 201.02 72.50
  L 211.42 72.43
  Q 212.01 72.42 212.00 71.83
  L 211.95 51.53
  Q 211.95 51.00 212.48 51.00
  L 225.48 50.94
  Q 226.02 50.94 226.01 51.48
  L 225.79 59.04
  Q 224.69 65.26 225.08 71.70
  A 1.80 1.79 -0.3 0 0 226.80 73.39
  Q 229.28 73.51 227.48 72.57
  L 237.34 72.35
  Q 237.86 72.34 237.86 71.82
  L 237.92 62.98
  Q 238.62 62.38 238.63 61.95
  A 1.34 1.33 10.8 0 1 240.42 60.74
  Q 243.60 61.90 244.03 66.37
  C 244.20 68.06 243.73 70.17 244.07 71.79
  Q 244.55 74.06 244.99 72.50
  L 284.65 72.45
  Q 283.26 74.61 281.74 75.59
  Q 274.20 79.78 265.83 80.64
  Q 264.77 80.75 256.17 81.11
  Q 251.65 81.30 246.50 81.04
  Q 245.29 80.98 244.14 80.67
  Q 242.94 80.35 241.84 79.80
  Q 239.57 78.66 237.14 78.38
  Q 235.46 78.19 233.81 79.01
  A 0.73 0.73 0.0 0 1 233.20 79.03
  Q 232.50 78.74 232.02 79.34
  Q 231.78 79.65 231.39 79.69
  C 229.38 79.93 227.46 80.36 225.47 79.64
  Q 220.77 77.92 216.09 76.82
  Q 214.01 76.33 211.84 76.46
  Q 209.45 76.60 207.70 77.74
  Q 205.61 79.12 203.28 79.98
  Q 199.89 81.24 196.44 80.35
  Q 193.68 79.64 191.15 79.39
  Q 188.72 79.14 185.98 78.43
  Q 185.48 78.30 185.00 78.48
  Q 181.42 79.81 178.08 81.34
  Q 174.38 83.04 165.12 83.46
  Q 164.69 83.48 164.30 83.66
  Q 163.92 83.84 163.50 83.83
  Q 156.99 83.69 150.54 83.94
  Q 146.65 84.09 143.43 83.95
  Q 139.98 83.80 136.36 83.95
  Q 131.09 84.16 125.69 83.91
  Q 113.71 83.35 100.55 81.51
  Q 100.34 81.48 100.22 81.31
  Q 100.02 81.02 99.67 80.95
  Q 94.73 80.00 90.09 79.81
  Q 88.25 79.74 86.15 80.28
  Q 84.30 80.75 82.80 81.89
  Q 81.25 83.06 79.25 83.31
  Q 78.00 83.47 76.76 83.61
  Q 75.46 83.75 74.22 83.68
  Q 71.27 83.52 68.36 83.74
  Q 67.28 83.83 66.24 83.63
  Q 65.04 83.40 63.89 83.63
  Q 58.10 84.82 51.70 84.58
  Q 48.06 84.44 44.32 84.66
  Q 40.83 84.86 37.01 85.38
  Q 32.09 86.06 25.83 85.94
  Q 23.39 85.89 21.17 85.56
  Q 18.69 85.19 16.37 85.14
  Q 12.33 85.05 9.62 83.75
  Q 2.88 80.50 1.89 72.99
  Q 0.70 63.88 0.00 60.59
  L 0.00 13.25
  Q 0.09 13.41 0.26 13.47
  A 0.27 0.27 0.0 0 0 0.61 13.12
  Q 0.39 12.59 0.76 12.24
  Q 1.32 11.73 1.01 12.42
  Q 0.86 12.75 1.04 13.02
  Q 1.34 13.49 1.79 13.16
  L 2.28 12.80
  A 0.35 0.34 -29.6 0 1 2.80 12.94
  Q 3.36 14.19 4.71 14.57
  Q 7.01 15.21 9.26 15.72
  Q 9.53 15.78 9.66 15.98
  Q 9.83 16.25 10.16 16.23
  Q 13.14 16.05 13.09 17.01
  Z
  M 58.60 74.25
  L 58.58 74.87
  A 0.14 0.14 0.0 0 0 58.72 75.01
  L 58.89 75.02
  A 7.35 0.41 2.1 0 0 66.25 74.88
  L 66.25 74.80
  A 7.35 0.41 2.1 0 0 58.92 74.12
  L 58.75 74.12
  A 0.14 0.14 0.0 0 0 58.60 74.25
  Z"
/>
<path fill="#f1f0df" d="
  M 237.79 25.19
  L 237.92 62.98
  L 237.86 71.82
  Q 237.86 72.34 237.34 72.35
  L 227.48 72.57
  Q 225.82 73.20 225.83 71.75
  Q 225.93 62.17 225.79 59.04
  L 226.01 51.48
  Q 226.02 50.94 225.48 50.94
  L 212.48 51.00
  Q 211.95 51.00 211.95 51.53
  L 212.00 71.83
  Q 212.01 72.42 211.42 72.43
  L 201.02 72.50
  A 0.49 0.48 -0.0 0 1 200.53 72.02
  L 200.51 51.57
  Q 200.51 50.88 199.82 50.88
  L 187.78 50.98
  A 0.72 0.72 0.0 0 1 187.05 50.28
  L 186.86 40.27
  Q 186.85 39.65 187.48 39.66
  L 200.05 40.01
  Q 200.68 40.03 200.67 39.40
  L 200.38 17.30
  L 211.45 17.00
  A 0.52 0.51 -0.6 0 1 211.98 17.51
  L 211.99 39.08
  Q 211.99 39.71 212.62 39.73
  L 218.94 39.92
  L 225.58 39.87
  Q 226.11 39.87 226.10 39.35
  L 225.93 19.10
  L 226.03 17.32
  Q 226.05 16.86 226.50 16.87
  L 237.08 17.03
  Q 237.69 17.04 237.70 17.65
  L 237.79 25.19
  Z"
/>
<path fill="#f1f0df" d="
  M 49.35 62.23
  L 49.45 71.72
  Q 49.45 72.28 48.90 72.32
  L 46.66 72.48
  L 41.27 72.53
  L 14.04 72.48
  Q 13.12 72.48 13.12 71.56
  L 13.09 17.01
  L 24.53 17.07
  A 0.43 0.43 0.0 0 1 24.96 17.49
  L 25.01 61.48
  A 0.44 0.43 -0.0 0 0 25.45 61.91
  L 49.35 62.23
  Z"
/>
<path fill="#f1f0df" d="
  M 69.55 27.72
  L 69.63 71.88
  Q 69.63 72.39 69.12 72.40
  L 66.92 72.47
  L 58.63 72.45
  Q 57.90 72.45 57.90 71.72
  L 57.89 18.15
  Q 57.83 17.94 57.92 17.44
  Q 58.01 16.94 58.52 16.94
  L 68.80 16.99
  Q 69.43 16.99 69.44 17.62
  L 69.55 27.72
  Z"
/>
<path fill="#f1f0df" d="
  M 99.82 34.34
  L 111.08 47.98
  Q 111.76 48.80 111.76 47.73
  L 111.71 17.40
  L 122.14 17.05
  Q 122.71 17.03 122.71 17.60
  L 122.74 21.56
  L 122.94 71.76
  Q 122.94 72.26 122.45 72.33
  Q 118.81 72.85 115.35 72.14
  L 89.64 41.20
  A 0.38 0.38 0.0 0 0 88.97 41.45
  L 89.23 51.29
  L 88.99 72.50
  L 79.30 72.51
  Q 78.07 72.51 78.06 71.28
  L 77.92 18.51
  Q 78.59 16.06 85.08 17.03
  Q 85.57 17.11 85.89 17.49
  L 99.82 34.34
  Z"
/>
<path fill="#f1f0df" d="
  M 189.10 17.86
  L 177.63 30.14
  L 152.87 56.17
  L 147.96 61.34
  A 0.39 0.39 0.0 0 0 148.24 62.00
  L 177.57 61.92
  A 3.13 3.10 68.8 0 1 179.88 62.95
  L 187.29 71.19
  Q 188.46 72.50 186.70 72.24
  Q 186.22 72.17 184.96 72.46
  L 125.54 72.50
  A 0.52 0.51 -1.8 0 1 125.02 72.02
  C 124.91 70.54 124.64 67.69 125.81 66.53
  Q 146.41 46.15 164.17 28.48
  A 0.31 0.30 22.5 0 0 163.95 27.96
  L 125.77 27.99
  A 0.50 0.49 -0.6 0 1 125.27 27.51
  L 124.94 17.78
  Q 124.90 17.37 125.03 17.15
  Q 125.14 16.97 125.36 16.97
  Q 157.27 17.02 189.16 16.99
  Q 189.74 16.99 189.40 17.46
  L 189.10 17.86
  Z"
/>
<path fill="#f1f0df" d="
  M 247.54 16.95
  L 284.32 17.00
  A 0.50 0.50 0.0 0 1 284.82 17.49
  L 284.99 27.19
  Q 285.00 27.70 284.55 27.93
  Q 284.23 28.09 283.80 28.03
  L 257.36 28.06
  Q 256.68 28.06 256.69 28.74
  L 256.96 39.20
  Q 256.97 39.75 257.52 39.75
  L 275.45 39.74
  L 280.78 39.98
  Q 281.31 40.01 281.33 40.53
  L 281.71 50.25
  Q 281.73 50.75 281.28 50.96
  Q 280.90 51.13 280.34 50.92
  L 257.25 50.94
  Q 256.68 50.94 256.68 51.52
  L 256.80 61.26
  A 0.58 0.58 0.0 0 0 257.38 61.83
  L 271.20 61.93
  L 278.92 61.94
  L 284.40 62.12
  Q 284.95 62.14 284.93 62.69
  L 284.65 72.45
  L 244.99 72.50
  L 244.99 17.73
  Q 244.71 16.60 247.54 16.95
  Z"
/>
<path fill="#3e5d72" d="
  M 124.94 17.78
  L 125.27 27.51
  A 0.50 0.49 -0.6 0 0 125.77 27.99
  L 163.95 27.96
  A 0.31 0.30 22.5 0 1 164.17 28.48
  Q 146.41 46.15 125.81 66.53
  C 124.64 67.69 124.91 70.54 125.02 72.02
  A 0.52 0.51 -1.8 0 0 125.54 72.50
  L 184.96 72.46
  Q 185.31 72.48 185.63 72.52
  Q 185.97 72.55 186.21 72.76
  Q 186.47 72.98 186.33 73.30
  A 1.43 1.43 0.0 0 1 185.55 74.01
  Q 184.57 74.37 184.20 75.31
  Q 184.02 75.75 183.57 75.92
  Q 180.24 77.13 176.92 77.35
  Q 171.99 77.68 166.99 78.12
  C 162.58 78.50 158.12 78.32 153.67 78.44
  C 152.04 78.48 151.03 78.70 149.25 78.41
  Q 146.74 78.02 138.07 78.53
  C 135.71 78.68 133.51 78.47 131.14 78.39
  Q 129.72 78.34 128.37 78.10
  Q 125.74 77.63 123.16 77.38
  Q 121.33 77.20 119.32 77.45
  Q 116.55 77.79 115.43 77.57
  Q 107.66 76.05 102.80 73.80
  Q 96.81 71.02 91.50 70.26
  Q 89.81 70.02 89.82 71.71
  Q 89.82 72.13 89.59 72.48
  L 88.83 73.69
  Q 88.74 73.26 88.99 72.50
  L 89.23 51.29
  Q 89.92 51.17 90.85 49.38
  A 0.10 0.10 0.0 0 1 91.00 49.35
  Q 92.96 50.70 94.99 51.98
  Q 96.53 52.95 97.69 54.15
  Q 99.00 55.50 100.27 56.82
  Q 100.43 56.99 100.66 57.02
  Q 101.02 57.08 101.27 57.34
  Q 103.02 59.16 104.47 61.23
  Q 105.90 63.25 107.59 65.12
  Q 110.45 68.26 112.83 71.18
  Q 113.36 71.83 113.83 72.17
  Q 115.13 73.11 115.35 72.14
  Q 118.81 72.85 122.45 72.33
  Q 122.94 72.26 122.94 71.76
  L 122.74 21.56
  L 122.90 18.27
  Q 122.92 17.77 123.34 17.48
  Q 124.00 17.02 124.94 17.78
  Z"
/>
<path fill="#001211" d="
  M 244.99 17.73
  L 244.99 72.50
  Q 244.55 74.06 244.07 71.79
  C 243.73 70.17 244.20 68.06 244.03 66.37
  L 244.36 20.72
  Q 244.12 18.67 244.99 17.73
  Z"
/>
<path fill="#3e5d72" d="
  M 111.71 17.40
  L 111.76 47.73
  Q 111.76 48.80 111.08 47.98
  L 99.82 34.34
  L 103.01 27.44
  Q 103.22 26.98 103.61 26.66
  Q 104.10 26.27 104.12 25.65
  Q 104.14 25.02 104.61 24.61
  Q 105.76 23.59 107.05 22.22
  C 107.48 21.77 107.88 21.57 108.53 21.59
  Q 109.07 21.60 109.36 21.14
  L 111.71 17.40
  Z"
/>
<path fill="#32506a" d="
  M 77.92 18.51
  L 78.06 71.28
  Q 78.07 72.51 79.30 72.51
  L 88.99 72.50
  Q 88.74 73.26 88.83 73.69
  Q 87.23 74.03 86.17 75.23
  Q 85.82 75.62 85.30 75.68
  Q 82.82 75.94 79.89 75.67
  Q 78.72 75.57 77.80 74.96
  C 76.79 74.29 75.52 73.40 74.29 73.40
  Q 72.25 73.39 70.34 72.93
  Q 69.81 72.81 69.42 73.19
  Q 68.45 74.14 66.92 74.43
  Q 65.97 74.61 66.64 73.91
  Q 66.71 73.83 66.81 73.83
  Q 67.48 73.81 67.15 73.19
  Q 66.96 72.82 66.92 72.47
  L 69.12 72.40
  Q 69.63 72.39 69.63 71.88
  L 69.55 27.72
  Q 69.55 26.12 70.66 25.74
  Q 71.04 25.61 71.33 25.35
  Q 72.08 24.66 74.04 23.41
  Q 75.56 22.43 77.92 18.51
  Z"
/>
<path fill="#32506a" d="
  M 225.93 19.10
  L 226.10 39.35
  Q 226.11 39.87 225.58 39.87
  L 218.94 39.92
  C 218.88 38.22 219.80 36.98 220.20 35.79
  Q 220.57 34.71 221.07 33.60
  Q 221.56 32.51 221.63 31.36
  Q 221.75 29.31 222.33 26.95
  Q 222.51 26.20 222.88 25.56
  Q 223.33 24.80 222.99 23.90
  Q 222.82 23.45 223.10 23.06
  L 225.93 19.10
  Z"
/>
<path fill="#3e5d72" d="
  M 244.36 20.72
  L 244.03 66.37
  Q 243.60 61.90 240.42 60.74
  A 1.34 1.33 10.8 0 0 238.63 61.95
  Q 238.62 62.38 237.92 62.98
  L 237.79 25.19
  L 244.36 20.72
  Z"
/>
<path fill="#3e5d72" d="
  M 283.80 28.03
  L 275.45 39.74
  L 257.52 39.75
  Q 256.97 39.75 256.96 39.20
  L 256.69 28.74
  Q 256.68 28.06 257.36 28.06
  L 283.80 28.03
  Z"
/>
<path fill="#718f95" d="
  M 300.00 48.01
  L 300.00 75.63
  Q 299.47 75.15 298.99 75.40
  Q 298.74 75.52 298.68 75.79
  Q 298.61 76.05 298.70 76.32
  Q 298.73 76.40 298.64 76.40
  L 298.07 76.39
  Q 297.76 76.39 297.52 76.57
  Q 286.43 84.78 277.22 90.29
  Q 268.96 95.23 260.91 97.32
  Q 254.16 99.08 247.01 99.82
  Q 242.25 100.32 237.39 100.79
  C 236.22 100.90 235.42 100.56 234.22 100.72
  Q 228.02 101.51 221.67 102.58
  Q 220.26 102.82 218.91 103.27
  Q 217.55 103.71 216.17 103.74
  C 214.48 103.77 213.21 104.67 211.74 105.34
  A 0.74 0.73 70.0 0 0 211.34 106.21
  Q 211.51 106.83 210.98 107.23
  Q 210.77 107.39 210.54 107.26
  Q 210.50 107.23 210.48 107.19
  Q 210.27 106.77 209.90 107.10
  Q 209.73 107.26 209.61 107.28
  Q 207.33 106.25 205.08 105.41
  Q 204.52 105.20 204.19 104.74
  Q 203.86 104.28 204.07 103.76
  Q 204.39 102.97 205.24 102.93
  Q 206.83 102.85 208.40 103.56
  Q 209.62 104.11 209.91 102.80
  L 210.16 101.63
  A 1.40 1.39 -74.9 0 0 209.23 100.00
  Q 205.87 98.91 203.33 99.83
  Q 200.82 100.74 200.01 102.91
  Q 196.99 105.40 200.57 108.18
  Q 201.49 108.89 202.15 110.80
  Q 201.07 111.64 200.51 113.57
  Q 200.37 114.06 200.78 114.37
  Q 204.20 116.93 208.57 115.44
  Q 207.95 117.82 205.61 118.30
  Q 205.06 118.41 204.77 118.88
  Q 203.24 121.37 200.17 121.40
  Q 196.98 121.42 193.84 121.10
  Q 193.30 121.04 192.90 120.66
  Q 192.53 120.31 192.01 120.34
  Q 188.99 120.50 186.00 120.63
  Q 185.43 120.66 184.93 120.95
  Q 184.49 121.21 184.03 120.98
  Q 183.42 120.66 182.96 121.18
  Q 182.72 121.44 182.39 121.54
  Q 180.90 121.99 179.67 121.51
  Q 179.25 121.34 178.80 121.39
  Q 176.93 121.57 175.13 120.99
  Q 172.38 120.10 169.90 119.32
  Q 168.14 118.76 166.79 120.02
  Q 166.70 120.11 166.58 120.08
  Q 166.52 120.06 166.52 120.01
  Q 166.49 119.73 166.21 119.88
  Q 162.65 121.74 159.03 122.37
  Q 155.35 123.02 151.44 121.46
  Q 149.65 120.74 148.10 119.17
  Q 146.57 117.62 145.09 116.03
  Q 144.40 115.29 143.47 115.08
  Q 142.49 114.87 141.49 114.69
  Q 140.98 114.60 140.56 114.91
  Q 138.84 116.15 137.04 116.83
  Q 135.52 117.41 134.74 119.06
  Q 134.50 119.56 134.01 119.79
  Q 132.52 120.49 131.49 121.75
  Q 131.39 121.87 131.24 121.87
  L 130.74 121.87
  Q 130.22 121.87 129.92 122.30
  Q 128.74 124.04 126.75 123.88
  A 0.47 0.47 0.0 0 0 126.26 124.49
  Q 126.39 124.90 126.08 125.02
  Q 125.28 125.32 126.01 125.73
  Q 126.27 125.88 126.50 126.00
  L 111.40 126.00
  L 116.10 125.13
  Q 116.54 125.05 116.66 124.62
  Q 116.80 124.13 116.33 124.08
  Q 115.78 124.02 115.67 123.48
  Q 115.56 122.95 115.25 122.46
  Q 115.15 122.30 115.03 122.45
  Q 114.93 122.57 114.77 122.60
  Q 114.46 122.64 114.31 122.37
  Q 113.62 121.09 112.24 120.95
  A 0.60 0.46 53.0 0 1 112.10 120.91
  L 108.59 119.29
  A 0.41 0.41 0.0 0 0 108.04 119.50
  Q 107.54 120.66 106.62 119.79
  Q 106.14 119.34 105.79 119.89
  Q 105.40 120.50 104.64 120.67
  Q 102.49 121.17 100.48 121.16
  Q 100.03 121.15 99.67 120.87
  Q 99.23 120.50 98.79 120.91
  Q 98.27 121.39 97.85 120.81
  Q 97.55 120.39 97.02 120.53
  Q 93.87 121.32 91.34 120.96
  C 90.02 120.77 88.81 121.03 87.51 120.59
  Q 86.15 120.13 85.26 118.96
  Q 83.99 117.28 82.06 116.77
  Q 81.54 116.63 81.14 116.26
  Q 79.15 114.41 76.50 113.98
  A 2.16 2.14 67.0 0 1 75.62 113.62
  Q 73.39 112.03 70.65 112.96
  A 1.95 1.94 12.8 0 0 69.87 113.45
  Q 69.10 114.24 68.11 113.73
  A 1.59 1.58 -32.3 0 0 67.30 113.55
  L 59.41 113.94
  Q 59.31 113.95 59.33 114.04
  Q 59.38 114.22 59.37 114.38
  Q 59.34 114.74 58.98 114.79
  Q 56.93 115.07 54.98 114.91
  Q 50.13 114.54 45.71 114.90
  Q 44.95 114.96 44.21 114.74
  Q 43.72 114.60 43.23 114.68
  Q 32.31 116.54 25.25 115.94
  Q 10.78 114.72 0.00 117.18
  L 0.00 80.47
  Q 0.65 84.95 3.36 88.39
  A 1.42 1.39 -12.3 0 0 4.17 88.90
  C 5.20 89.15 6.18 89.60 7.11 89.77
  Q 13.88 90.97 19.89 90.86
  Q 23.23 90.80 26.86 91.17
  Q 30.38 91.53 33.99 91.08
  Q 42.91 89.96 51.40 90.20
  Q 55.04 90.30 58.60 90.08
  Q 62.18 89.85 65.86 89.80
  Q 68.51 89.77 71.00 89.55
  Q 73.49 89.33 76.01 88.91
  Q 80.24 88.19 84.47 88.12
  A 0.45 0.43 66.9 0 1 84.78 88.25
  Q 84.92 88.39 85.11 88.38
  Q 91.84 87.89 97.18 88.70
  Q 101.39 89.35 105.48 89.10
  Q 109.81 88.84 113.87 89.10
  Q 122.30 89.63 131.70 90.03
  Q 134.91 90.17 138.14 89.94
  Q 141.45 89.71 144.67 89.58
  Q 145.03 89.57 145.40 89.64
  Q 145.79 89.71 146.00 89.36
  A 0.66 0.64 15.3 0 1 146.58 89.04
  Q 157.18 89.39 167.91 88.77
  C 170.59 88.61 173.05 87.66 175.65 87.28
  Q 176.22 87.20 176.48 86.69
  Q 176.59 86.46 176.80 86.33
  Q 177.25 86.05 177.79 85.99
  Q 184.37 85.30 191.37 85.79
  Q 195.21 86.06 199.18 85.70
  Q 201.45 85.49 203.73 84.96
  Q 205.89 84.47 208.30 84.30
  Q 215.57 83.79 222.54 85.08
  Q 223.43 85.24 224.32 85.08
  C 225.78 84.81 227.05 85.25 228.59 84.92
  Q 233.24 83.91 236.00 84.37
  Q 243.33 85.61 248.58 85.78
  Q 253.45 85.94 258.78 85.91
  Q 262.07 85.89 265.29 85.19
  Q 268.76 84.44 272.16 83.54
  Q 274.01 83.05 275.44 81.81
  C 276.23 81.13 277.28 81.04 277.97 80.61
  Q 280.13 79.27 281.74 75.59
  Q 283.26 74.61 284.65 72.45
  L 284.93 62.69
  Q 284.95 62.14 284.40 62.12
  L 278.92 61.94
  L 281.06 61.39
  Q 281.80 61.20 281.37 60.56
  Q 280.26 58.91 281.65 56.98
  Q 282.50 55.80 282.78 54.46
  Q 282.93 53.70 282.95 52.89
  Q 282.98 51.99 283.31 51.18
  Q 283.66 50.30 283.67 49.29
  Q 283.68 48.23 283.91 47.24
  Q 284.55 44.49 284.82 41.83
  A 1.29 1.26 72.9 0 1 285.25 40.99
  Q 285.51 40.77 285.69 40.50
  Q 285.86 40.24 285.93 39.93
  Q 286.42 37.47 287.37 35.18
  Q 289.08 31.06 292.96 29.00
  Q 293.48 28.73 293.90 29.14
  Q 295.41 30.58 296.82 31.93
  Q 298.26 33.32 298.82 36.19
  Q 299.95 42.02 300.00 48.01
  Z
  M 124.54 105.57
  Q 124.19 104.73 121.64 106.37
  Q 121.42 106.51 121.38 106.70
  Q 121.32 106.95 121.51 106.77
  Q 122.32 105.99 123.10 106.37
  Q 120.83 107.06 120.86 108.76
  Q 120.87 109.84 120.88 110.90
  Q 120.89 112.08 121.43 112.91
  Q 123.82 116.67 128.51 117.15
  L 133.87 116.97
  A 0.55 0.43 -33.9 0 0 134.18 116.04
  L 133.72 115.96
  C 145.26 113.76 141.70 98.48 131.75 99.52
  Q 126.22 100.10 124.54 105.57
  Z
  M 173.5929 110.2882
  A 8.53 8.20 17.1 0 0 167.8511 99.9425
  A 8.53 8.20 17.1 0 0 157.2871 105.2718
  A 8.53 8.20 17.1 0 0 163.0289 115.6175
  A 8.53 8.20 17.1 0 0 173.5929 110.2882
  Z
  M 99.02 103.53
  A 0.80 0.80 0.0 0 1 99.78 104.33
  L 99.84 114.90
  A 0.80 0.80 0.0 0 0 100.63 115.70
  L 102.59 115.72
  A 0.80 0.80 0.0 0 0 103.40 114.91
  L 103.32 104.27
  A 0.80 0.80 0.0 0 1 104.11 103.47
  L 107.45 103.46
  A 0.80 0.80 0.0 0 0 108.24 102.63
  L 108.16 100.68
  A 0.80 0.80 0.0 0 0 107.35 99.91
  L 95.28 100.06
  A 0.80 0.80 0.0 0 0 94.50 100.94
  L 94.67 102.64
  A 0.80 0.80 0.0 0 0 95.43 103.36
  L 99.02 103.53
  Z
  M 186.49 111.91
  A 0.36 0.36 0.0 0 1 186.15 111.55
  L 186.12 100.41
  A 0.36 0.36 0.0 0 0 185.77 100.05
  L 182.75 99.99
  A 0.36 0.36 0.0 0 0 182.38 100.35
  L 182.53 115.22
  A 0.36 0.36 0.0 0 0 182.89 115.58
  L 193.67 115.49
  A 0.36 0.36 0.0 0 0 194.02 115.13
  L 193.98 112.60
  A 0.36 0.36 0.0 0 0 193.63 112.24
  L 186.49 111.91
  Z
  M 36.0592 107.4057
  A 0.54 0.54 0.0 0 0 35.5108 106.8742
  L 25.8520 107.0259
  A 0.54 0.54 0.0 0 0 25.3205 107.5743
  L 25.3208 107.5943
  A 0.54 0.54 0.0 0 0 25.8692 108.1258
  L 35.5280 107.9741
  A 0.54 0.54 0.0 0 0 36.0595 107.4257
  L 36.0592 107.4057
  Z
  M 71.4989 107.6691
  A 0.54 0.54 0.0 0 0 70.9675 107.1207
  L 51.7898 106.8194
  A 0.54 0.54 0.0 0 0 51.2414 107.3509
  L 51.2411 107.3709
  A 0.54 0.54 0.0 0 0 51.7725 107.9193
  L 70.9502 108.2206
  A 0.54 0.54 0.0 0 0 71.4986 107.6891
  L 71.4989 107.6691
  Z"
/>
<path fill="#3e5d72" d="
  M 177.63 30.14
  Q 177.92 30.47 178.45 30.26
  Q 178.93 30.06 179.01 30.57
  Q 179.03 30.76 178.98 30.96
  Q 178.88 31.28 178.63 31.49
  Q 177.96 32.04 177.84 32.90
  Q 177.76 33.44 177.42 33.87
  Q 175.39 36.42 173.09 38.45
  Q 171.80 39.58 170.77 40.98
  Q 169.60 42.59 167.87 43.52
  Q 167.45 43.75 167.26 44.20
  C 166.74 45.41 165.53 45.44 164.63 46.33
  Q 159.97 50.93 155.35 55.66
  Q 154.83 56.20 154.28 56.45
  Q 152.79 57.14 152.87 56.17
  L 177.63 30.14
  Z"
/>
<path fill="#32506a" d="
  M 115.35 72.14
  Q 115.13 73.11 113.83 72.17
  Q 113.36 71.83 112.83 71.18
  Q 110.45 68.26 107.59 65.12
  Q 105.90 63.25 104.47 61.23
  Q 103.02 59.16 101.27 57.34
  Q 101.02 57.08 100.66 57.02
  Q 100.43 56.99 100.27 56.82
  Q 99.00 55.50 97.69 54.15
  Q 96.53 52.95 94.99 51.98
  Q 92.96 50.70 91.00 49.35
  A 0.10 0.10 0.0 0 0 90.85 49.38
  Q 89.92 51.17 89.23 51.29
  L 88.97 41.45
  A 0.38 0.38 0.0 0 1 89.64 41.20
  L 115.35 72.14
  Z"
/>
<path fill="#466679" d="
  M 280.34 50.92
  Q 279.61 52.17 278.68 53.08
  Q 277.67 54.06 276.99 55.10
  Q 275.78 56.94 273.83 58.17
  Q 273.46 58.40 273.41 58.84
  Q 273.37 59.18 273.08 59.17
  Q 272.49 59.14 272.35 59.71
  Q 272.04 61.01 271.20 61.93
  L 257.38 61.83
  A 0.58 0.58 0.0 0 1 256.80 61.26
  L 256.68 51.52
  Q 256.68 50.94 257.25 50.94
  L 280.34 50.92
  Z"
/>
<path fill="#001211" d="
  M 225.79 59.04
  Q 225.93 62.17 225.83 71.75
  Q 225.82 73.20 227.48 72.57
  Q 229.28 73.51 226.80 73.39
  A 1.80 1.79 -0.3 0 1 225.08 71.70
  Q 224.69 65.26 225.79 59.04
  Z"
/>
<path fill="#567581" d="
  M 0.00 60.59
  Q 0.70 63.88 1.89 72.99
  Q 2.88 80.50 9.62 83.75
  Q 12.33 85.05 16.37 85.14
  Q 18.69 85.19 21.17 85.56
  Q 23.39 85.89 25.83 85.94
  Q 32.09 86.06 37.01 85.38
  Q 40.83 84.86 44.32 84.66
  Q 48.06 84.44 51.70 84.58
  Q 58.10 84.82 63.89 83.63
  Q 65.04 83.40 66.24 83.63
  Q 67.28 83.83 68.36 83.74
  Q 71.27 83.52 74.22 83.68
  Q 75.46 83.75 76.76 83.61
  Q 78.00 83.47 79.25 83.31
  Q 81.25 83.06 82.80 81.89
  Q 84.30 80.75 86.15 80.28
  Q 88.25 79.74 90.09 79.81
  Q 94.73 80.00 99.67 80.95
  Q 100.02 81.02 100.22 81.31
  Q 100.34 81.48 100.55 81.51
  Q 113.71 83.35 125.69 83.91
  Q 131.09 84.16 136.36 83.95
  Q 139.98 83.80 143.43 83.95
  Q 146.65 84.09 150.54 83.94
  Q 156.99 83.69 163.50 83.83
  Q 163.92 83.84 164.30 83.66
  Q 164.69 83.48 165.12 83.46
  Q 174.38 83.04 178.08 81.34
  Q 181.42 79.81 185.00 78.48
  Q 185.48 78.30 185.98 78.43
  Q 188.72 79.14 191.15 79.39
  Q 193.68 79.64 196.44 80.35
  Q 199.89 81.24 203.28 79.98
  Q 205.61 79.12 207.70 77.74
  Q 209.45 76.60 211.84 76.46
  Q 214.01 76.33 216.09 76.82
  Q 220.77 77.92 225.47 79.64
  C 227.46 80.36 229.38 79.93 231.39 79.69
  Q 231.78 79.65 232.02 79.34
  Q 232.50 78.74 233.20 79.03
  A 0.73 0.73 0.0 0 0 233.81 79.01
  Q 235.46 78.19 237.14 78.38
  Q 239.57 78.66 241.84 79.80
  Q 242.94 80.35 244.14 80.67
  Q 245.29 80.98 246.50 81.04
  Q 251.65 81.30 256.17 81.11
  Q 264.77 80.75 265.83 80.64
  Q 274.20 79.78 281.74 75.59
  Q 280.13 79.27 277.97 80.61
  C 277.28 81.04 276.23 81.13 275.44 81.81
  Q 274.01 83.05 272.16 83.54
  Q 268.76 84.44 265.29 85.19
  Q 262.07 85.89 258.78 85.91
  Q 253.45 85.94 248.58 85.78
  Q 243.33 85.61 236.00 84.37
  Q 233.24 83.91 228.59 84.92
  C 227.05 85.25 225.78 84.81 224.32 85.08
  Q 223.43 85.24 222.54 85.08
  Q 215.57 83.79 208.30 84.30
  Q 205.89 84.47 203.73 84.96
  Q 201.45 85.49 199.18 85.70
  Q 195.21 86.06 191.37 85.79
  Q 184.37 85.30 177.79 85.99
  Q 177.25 86.05 176.80 86.33
  Q 176.59 86.46 176.48 86.69
  Q 176.22 87.20 175.65 87.28
  C 173.05 87.66 170.59 88.61 167.91 88.77
  Q 157.18 89.39 146.58 89.04
  A 0.66 0.64 15.3 0 0 146.00 89.36
  Q 145.79 89.71 145.40 89.64
  Q 145.03 89.57 144.67 89.58
  Q 141.45 89.71 138.14 89.94
  Q 134.91 90.17 131.70 90.03
  Q 122.30 89.63 113.87 89.10
  Q 109.81 88.84 105.48 89.10
  Q 101.39 89.35 97.18 88.70
  Q 91.84 87.89 85.11 88.38
  Q 84.92 88.39 84.78 88.25
  A 0.45 0.43 66.9 0 0 84.47 88.12
  Q 80.24 88.19 76.01 88.91
  Q 73.49 89.33 71.00 89.55
  Q 68.51 89.77 65.86 89.80
  Q 62.18 89.85 58.60 90.08
  Q 55.04 90.30 51.40 90.20
  Q 42.91 89.96 33.99 91.08
  Q 30.38 91.53 26.86 91.17
  Q 23.23 90.80 19.89 90.86
  Q 13.88 90.97 7.11 89.77
  C 6.18 89.60 5.20 89.15 4.17 88.90
  A 1.42 1.39 -12.3 0 1 3.36 88.39
  Q 0.65 84.95 0.00 80.47
  L 0.00 60.59
  Z"
/>
<path fill="#32506a" d="
  M 41.27 72.53
  L 46.66 72.48
  Q 47.21 72.93 47.11 73.31
  Q 47.02 73.71 46.59 73.84
  C 45.84 74.07 45.26 74.57 44.49 74.60
  Q 36.34 74.90 27.88 74.92
  Q 24.99 74.93 22.14 75.10
  Q 18.12 75.34 14.43 74.57
  Q 13.40 74.35 14.45 74.34
  L 44.75 74.04
  A 0.41 0.41 0.0 0 0 45.05 73.36
  C 43.95 72.06 42.38 73.31 41.27 72.53
  Z"
/>
<path fill="#32506a" d="
  M 58.60 74.25
  A 0.14 0.14 0.0 0 1 58.75 74.12
  L 58.92 74.12
  A 7.35 0.41 2.1 0 1 66.25 74.80
  L 66.25 74.88
  A 7.35 0.41 2.1 0 1 58.89 75.02
  L 58.72 75.01
  A 0.14 0.14 0.0 0 1 58.58 74.87
  L 58.60 74.25
  Z"
/>
<path fill="#8da4a4" d="
  M 300.00 75.63
  L 300.00 126.00
  L 126.50 126.00
  Q 126.27 125.88 126.01 125.73
  Q 125.28 125.32 126.08 125.02
  Q 126.39 124.90 126.26 124.49
  A 0.47 0.47 0.0 0 1 126.75 123.88
  Q 128.74 124.04 129.92 122.30
  Q 130.22 121.87 130.74 121.87
  L 131.24 121.87
  Q 131.39 121.87 131.49 121.75
  Q 132.52 120.49 134.01 119.79
  Q 134.50 119.56 134.74 119.06
  Q 135.52 117.41 137.04 116.83
  Q 138.84 116.15 140.56 114.91
  Q 140.98 114.60 141.49 114.69
  Q 142.49 114.87 143.47 115.08
  Q 144.40 115.29 145.09 116.03
  Q 146.57 117.62 148.10 119.17
  Q 149.65 120.74 151.44 121.46
  Q 155.35 123.02 159.03 122.37
  Q 162.65 121.74 166.21 119.88
  Q 166.49 119.73 166.52 120.01
  Q 166.52 120.06 166.58 120.08
  Q 166.70 120.11 166.79 120.02
  Q 168.14 118.76 169.90 119.32
  Q 172.38 120.10 175.13 120.99
  Q 176.93 121.57 178.80 121.39
  Q 179.25 121.34 179.67 121.51
  Q 180.90 121.99 182.39 121.54
  Q 182.72 121.44 182.96 121.18
  Q 183.42 120.66 184.03 120.98
  Q 184.49 121.21 184.93 120.95
  Q 185.43 120.66 186.00 120.63
  Q 188.99 120.50 192.01 120.34
  Q 192.53 120.31 192.90 120.66
  Q 193.30 121.04 193.84 121.10
  Q 196.98 121.42 200.17 121.40
  Q 203.24 121.37 204.77 118.88
  Q 205.06 118.41 205.61 118.30
  Q 207.95 117.82 208.57 115.44
  Q 213.08 111.75 209.61 107.28
  Q 209.73 107.26 209.90 107.10
  Q 210.27 106.77 210.48 107.19
  Q 210.50 107.23 210.54 107.26
  Q 210.77 107.39 210.98 107.23
  Q 211.51 106.83 211.34 106.21
  A 0.74 0.73 70.0 0 1 211.74 105.34
  C 213.21 104.67 214.48 103.77 216.17 103.74
  Q 217.55 103.71 218.91 103.27
  Q 220.26 102.82 221.67 102.58
  Q 228.02 101.51 234.22 100.72
  C 235.42 100.56 236.22 100.90 237.39 100.79
  Q 242.25 100.32 247.01 99.82
  Q 254.16 99.08 260.91 97.32
  Q 268.96 95.23 277.22 90.29
  Q 286.43 84.78 297.52 76.57
  Q 297.76 76.39 298.07 76.39
  L 298.64 76.40
  Q 298.73 76.40 298.70 76.32
  Q 298.61 76.05 298.68 75.79
  Q 298.74 75.52 298.99 75.40
  Q 299.47 75.15 300.00 75.63
  Z"
/>
<path fill="#f1f0df" d="
  M 133.72 115.96
  Q 123.57 115.75 124.54 105.57
  Q 126.22 100.10 131.75 99.52
  C 141.70 98.48 145.26 113.76 133.72 115.96
  Z
  M 136.6853 107.1750
  A 3.61 3.61 0.0 0 0 133.1069 103.5337
  L 132.3069 103.5267
  A 3.61 3.61 0.0 0 0 128.6656 107.1050
  L 128.6547 108.3450
  A 3.61 3.61 0.0 0 0 132.2331 111.9863
  L 133.0331 111.9933
  A 3.61 3.61 0.0 0 0 136.6744 108.4150
  L 136.6853 107.1750
  Z"
/>
<path fill="#f1f0df" d="
  M 173.5929 110.2882
  A 8.53 8.20 17.1 0 1 163.0289 115.6175
  A 8.53 8.20 17.1 0 1 157.2871 105.2718
  A 8.53 8.20 17.1 0 1 167.8511 99.9425
  A 8.53 8.20 17.1 0 1 173.5929 110.2882
  Z
  M 169.78 107.80
  A 4.35 4.35 0.0 0 0 165.43 103.45
  A 4.35 4.35 0.0 0 0 161.08 107.80
  A 4.35 4.35 0.0 0 0 165.43 112.15
  A 4.35 4.35 0.0 0 0 169.78 107.80
  Z"
/>
<path fill="#f1f0df" d="
  M 209.61 107.28
  Q 213.08 111.75 208.57 115.44
  Q 204.20 116.93 200.78 114.37
  Q 200.37 114.06 200.51 113.57
  Q 201.07 111.64 202.15 110.80
  Q 203.64 112.80 205.39 112.39
  Q 208.78 111.59 205.77 109.84
  C 202.50 107.95 199.28 108.41 200.01 102.91
  Q 200.82 100.74 203.33 99.83
  Q 205.87 98.91 209.23 100.00
  A 1.40 1.39 -74.9 0 1 210.16 101.63
  L 209.91 102.80
  Q 209.62 104.11 208.40 103.56
  Q 206.83 102.85 205.24 102.93
  Q 204.39 102.97 204.07 103.76
  Q 203.86 104.28 204.19 104.74
  Q 204.52 105.20 205.08 105.41
  Q 207.33 106.25 209.61 107.28
  Z"
/>
<path fill="#f1f0df" d="
  M 99.02 103.53
  L 95.43 103.36
  A 0.80 0.80 0.0 0 1 94.67 102.64
  L 94.50 100.94
  A 0.80 0.80 0.0 0 1 95.28 100.06
  L 107.35 99.91
  A 0.80 0.80 0.0 0 1 108.16 100.68
  L 108.24 102.63
  A 0.80 0.80 0.0 0 1 107.45 103.46
  L 104.11 103.47
  A 0.80 0.80 0.0 0 0 103.32 104.27
  L 103.40 114.91
  A 0.80 0.80 0.0 0 1 102.59 115.72
  L 100.63 115.70
  A 0.80 0.80 0.0 0 1 99.84 114.90
  L 99.78 104.33
  A 0.80 0.80 0.0 0 0 99.02 103.53
  Z"
/>
<path fill="#f1f0df" d="
  M 186.49 111.91
  L 193.63 112.24
  A 0.36 0.36 0.0 0 1 193.98 112.60
  L 194.02 115.13
  A 0.36 0.36 0.0 0 1 193.67 115.49
  L 182.89 115.58
  A 0.36 0.36 0.0 0 1 182.53 115.22
  L 182.38 100.35
  A 0.36 0.36 0.0 0 1 182.75 99.99
  L 185.77 100.05
  A 0.36 0.36 0.0 0 1 186.12 100.41
  L 186.15 111.55
  A 0.36 0.36 0.0 0 0 186.49 111.91
  Z"
/>
<path fill="#32506a" d="
  M 200.01 102.91
  C 199.28 108.41 202.50 107.95 205.77 109.84
  Q 208.78 111.59 205.39 112.39
  Q 203.64 112.80 202.15 110.80
  Q 201.49 108.89 200.57 108.18
  Q 196.99 105.40 200.01 102.91
  Z"
/>
<rect fill="#466679" x="-4.01" y="-4.23" transform="translate(132.67,107.76) rotate(0.5)" width="8.02" height="8.46" rx="3.61"/>
<circle fill="#567581" cx="165.43" cy="107.80" r="4.35"/>
<path fill="#567581" d="
  M 124.54 105.57
  Q 123.57 115.75 133.72 115.96
  L 134.18 116.04
  A 0.55 0.43 -33.9 0 1 133.87 116.97
  L 128.51 117.15
  Q 127.42 116.00 125.83 115.74
  Q 125.16 115.62 124.80 115.05
  Q 124.29 114.24 123.42 113.86
  A 2.25 2.24 0.4 0 1 122.22 112.65
  Q 120.93 109.53 123.10 106.37
  Q 122.32 105.99 121.51 106.77
  Q 121.32 106.95 121.38 106.70
  Q 121.42 106.51 121.64 106.37
  Q 124.19 104.73 124.54 105.57
  Z"
/>
<path fill="#65848d" d="
  M 123.10 106.37
  Q 120.93 109.53 122.22 112.65
  A 2.25 2.24 0.4 0 0 123.42 113.86
  Q 124.29 114.24 124.80 115.05
  Q 125.16 115.62 125.83 115.74
  Q 127.42 116.00 128.51 117.15
  Q 123.82 116.67 121.43 112.91
  Q 120.89 112.08 120.88 110.90
  Q 120.87 109.84 120.86 108.76
  Q 120.83 107.06 123.10 106.37
  Z"
/>
<rect fill="#8da4a4" x="-5.37" y="-0.55" transform="translate(30.69,107.50) rotate(-0.9)" width="10.74" height="1.10" rx="0.54"/>
<rect fill="#8da4a4" x="-10.13" y="-0.55" transform="translate(61.37,107.52) rotate(0.9)" width="20.26" height="1.10" rx="0.54"/>
<path fill="#8da4a4" d="
  M 111.40 126.00
  L 0.00 126.00
  L 0.00 117.18
  Q 10.78 114.72 25.25 115.94
  Q 32.31 116.54 43.23 114.68
  Q 43.72 114.60 44.21 114.74
  Q 44.95 114.96 45.71 114.90
  Q 50.13 114.54 54.98 114.91
  Q 56.93 115.07 58.98 114.79
  Q 59.34 114.74 59.37 114.38
  Q 59.38 114.22 59.33 114.04
  Q 59.31 113.95 59.41 113.94
  L 67.30 113.55
  A 1.59 1.58 -32.3 0 1 68.11 113.73
  Q 69.10 114.24 69.87 113.45
  A 1.95 1.94 12.8 0 1 70.65 112.96
  Q 73.39 112.03 75.62 113.62
  A 2.16 2.14 67.0 0 0 76.50 113.98
  Q 79.15 114.41 81.14 116.26
  Q 81.54 116.63 82.06 116.77
  Q 83.99 117.28 85.26 118.96
  Q 86.15 120.13 87.51 120.59
  C 88.81 121.03 90.02 120.77 91.34 120.96
  Q 93.87 121.32 97.02 120.53
  Q 97.55 120.39 97.85 120.81
  Q 98.27 121.39 98.79 120.91
  Q 99.23 120.50 99.67 120.87
  Q 100.03 121.15 100.48 121.16
  Q 102.49 121.17 104.64 120.67
  Q 105.40 120.50 105.79 119.89
  Q 106.14 119.34 106.62 119.79
  Q 107.54 120.66 108.04 119.50
  A 0.41 0.41 0.0 0 1 108.59 119.29
  L 112.10 120.91
  A 0.60 0.46 53.0 0 0 112.24 120.95
  Q 113.62 121.09 114.31 122.37
  Q 114.46 122.64 114.77 122.60
  Q 114.93 122.57 115.03 122.45
  Q 115.15 122.30 115.25 122.46
  Q 115.56 122.95 115.67 123.48
  Q 115.78 124.02 116.33 124.08
  Q 116.80 124.13 116.66 124.62
  Q 116.54 125.05 116.10 125.13
  L 111.40 126.00
  Z"
/>
</svg>
