<?xml version="1.0" encoding="UTF-8" standalone="no"?>
<!DOCTYPE svg PUBLIC "-//W3C//DTD SVG 1.1//EN" "http://www.w3.org/Graphics/SVG/1.1/DTD/svg11.dtd">
<svg xmlns="http://www.w3.org/2000/svg" version="1.1" viewBox="0.00 0.00 200.00 200.00">
  <g stroke-width="2.00" fill="none" stroke-linecap="butt">
    <path stroke="#6b6b79" vector-effect="non-scaling-stroke" d="
  M 73.07 0.00
  Q 61.06 5.06 52.16 15.14
  Q 47.06 20.91 43.42 25.18
  C 38.05 31.46 33.51 35.62 27.24 39.94
  A 0.39 0.38 -47.7 0 0 27.27 40.59
  Q 27.53 40.74 28.02 40.59
  Q 32.68 39.08 38.88 35.63
  Q 40.35 34.82 39.46 36.24
  C 35.68 42.31 33.37 48.00 34.41 55.98
  C 34.75 58.64 35.15 61.13 34.35 63.77
  Q 33.02 68.18 31.39 72.30
  Q 30.95 73.39 31.96 72.79
  C 34.90 71.05 37.84 67.24 39.90 64.51
  Q 41.25 62.72 41.29 64.96
  Q 41.43 73.05 43.99 80.73
  Q 44.54 82.38 44.95 80.69
  L 46.27 75.29
  Q 46.40 74.74 46.62 75.26
  L 50.87 85.37
  Q 51.56 87.02 51.85 85.26
  L 52.31 82.50
  A 0.52 0.52 0.0 0 1 53.23 82.27
  L 57.06 87.19
  A 0.55 0.54 -43.7 0 1 57.04 87.88
  Q 56.65 88.33 55.98 88.06
  A 1.07 1.07 0.0 0 0 54.55 88.78
  C 52.99 94.61 52.92 102.38 57.98 106.29
  Q 61.75 109.20 71.01 115.17
  Q 71.38 115.40 71.77 115.42
  Q 72.26 115.44 72.61 115.36
  A 0.03 0.02 51.0 0 0 72.61 115.31
  C 67.93 112.67 57.79 106.98 55.41 102.08
  C 53.69 98.55 56.94 96.28 58.61 93.86
  Q 59.04 93.23 58.39 92.83
  L 57.22 92.10
  A 0.73 0.73 0.0 0 0 56.13 92.54
  L 55.76 93.95
  Q 55.64 94.41 55.17 94.39
  Q 55.01 94.38 54.89 94.28
  Q 54.67 94.12 54.65 93.69
  Q 54.54 91.60 55.16 89.51
  Q 55.30 89.04 55.76 88.86
  C 58.47 87.77 63.93 92.38 64.91 94.82
  Q 67.58 101.47 71.58 109.50
  C 74.57 115.51 84.45 120.40 90.15 123.59
  C 90.82 123.97 91.64 124.85 91.87 125.76
  Q 93.68 132.83 94.03 140.20
  A 0.94 0.92 71.5 0 1 93.64 141.00
  Q 88.01 144.97 84.39 146.66
  C 80.35 148.53 75.72 150.12 74.15 153.70
  Q 70.42 162.22 62.15 171.95
  Q 60.16 174.29 62.41 177.61
  Q 62.47 177.70 62.37 177.72
  Q 62.00 177.80 62.27 177.86
  Q 62.39 177.88 62.36 177.76
  L 61.62 174.72
  A 2.24 2.22 -29.1 0 1 62.23 172.60
  Q 64.67 170.20 67.00 167.40
  C 71.92 161.48 73.21 152.38 80.53 149.04
  Q 87.63 145.79 93.90 141.87
  A 0.74 0.74 0.0 0 1 95.03 142.47
  C 95.21 147.96 97.06 152.34 96.89 158.42
  C 96.77 162.48 93.50 165.23 91.51 167.80
  Q 89.93 169.85 87.80 171.44
  Q 87.40 171.74 87.27 172.22
  Q 86.63 174.54 86.74 176.95
  Q 86.77 177.78 87.11 177.02
  C 87.55 176.06 87.12 174.87 87.32 174.04
  C 87.97 171.26 91.48 168.54 93.34 166.28
  C 95.62 163.51 97.88 163.70 97.68 158.74
  Q 97.53 154.82 97.09 152.47
  C 96.79 150.85 96.95 149.15 96.62 147.54
  Q 96.16 145.36 96.03 143.90
  C 95.85 142.07 95.24 140.35 95.03 138.68
  Q 94.33 133.08 93.17 127.77
  A 0.71 0.70 -83.5 0 1 94.16 126.98
  Q 97.20 128.41 100.01 130.12
  Q 102.03 131.35 105.11 134.29
  Q 109.02 138.01 113.65 140.84
  Q 116.24 142.42 118.09 140.34
  Q 122.57 135.29 125.01 132.88
  C 125.34 132.57 125.97 132.49 126.38 132.09
  Q 134.07 124.42 140.96 116.06
  Q 141.10 115.89 140.93 115.75
  L 140.93 115.74
  Q 140.76 115.60 140.61 115.77
  C 134.67 122.74 127.74 130.37 120.05 135.44
  Q 119.63 135.72 119.13 135.69
  Q 116.48 135.55 113.81 135.45
  Q 111.55 135.37 109.65 134.36
  C 101.10 129.83 92.80 124.53 84.46 119.60
  C 78.21 115.92 72.66 111.78 69.96 104.75
  Q 65.20 92.38 57.44 81.63
  C 56.27 80.02 55.81 77.63 55.84 75.96
  Q 55.90 72.06 57.01 75.80
  Q 57.21 76.47 58.46 77.69
  Q 59.10 78.32 58.86 77.46
  C 58.06 74.60 57.12 72.08 57.12 69.11
  C 57.12 63.73 56.72 57.93 58.04 52.77
  Q 58.25 51.94 58.42 52.78
  L 61.14 66.47
  A 0.41 0.41 0.0 0 0 61.95 66.44
  Q 62.52 61.94 63.14 56.75
  Q 63.58 53.06 66.21 47.99
  Q 66.35 47.73 66.39 48.02
  L 68.29 60.25
  Q 68.72 63.00 69.00 60.23
  Q 69.77 52.64 71.77 45.25
  Q 71.81 45.11 72.00 45.16
  L 72.00 45.16
  Q 72.02 45.16 72.00 45.49
  L 71.51 53.54
  Q 71.48 53.93 71.86 54.07
  Q 72.06 54.14 72.22 54.05
  Q 72.37 53.97 72.44 53.67
  C 74.07 46.07 77.10 38.79 80.35 31.86
  Q 80.76 30.99 80.62 31.94
  Q 79.07 43.07 80.65 54.23
  Q 81.14 57.71 81.72 54.24
  C 83.23 45.25 85.59 34.76 89.33 25.99
  Q 89.69 25.16 89.80 26.05
  Q 90.24 29.59 90.26 33.11
  Q 90.29 37.27 90.89 40.07
  C 91.72 43.91 92.18 49.59 94.41 52.83
  Q 94.95 53.62 94.64 52.72
  Q 92.88 47.64 91.79 42.16
  C 90.37 35.09 90.65 27.88 91.70 20.83
  Q 92.04 18.56 92.52 20.81
  Q 94.84 31.66 99.16 41.86
  Q 99.26 42.10 99.45 42.03
  L 99.46 42.03
  Q 99.63 41.96 99.54 41.70
  Q 96.24 32.16 94.16 22.27
  Q 93.55 19.36 95.26 21.76
  C 96.09 22.93 96.82 24.82 97.90 26.16
  Q 103.64 33.29 108.71 40.91
  C 109.68 42.37 110.36 44.22 111.32 45.69
  Q 111.91 46.61 111.61 45.55
  Q 109.58 38.35 106.55 31.51
  Q 105.82 29.87 107.01 31.21
  L 116.40 41.84
  Q 116.47 41.92 116.55 41.86
  L 116.77 41.70
  Q 116.80 41.68 116.78 41.64
  C 113.98 37.37 110.94 32.91 109.13 28.18
  Q 108.55 26.65 109.58 27.93
  Q 116.02 35.91 122.85 44.38
  Q 124.34 46.24 125.01 47.28
  Q 126.17 49.08 125.71 46.99
  Q 123.95 38.99 121.19 31.27
  Q 119.80 27.38 122.50 30.50
  Q 125.18 33.61 127.50 36.89
  C 130.55 41.18 134.48 45.65 137.07 50.40
  Q 138.79 53.56 138.38 49.98
  L 137.29 40.25
  Q 137.26 39.96 137.42 39.93
  L 137.43 39.93
  Q 137.60 39.90 137.64 40.12
  L 139.03 47.49
  Q 139.07 47.67 139.25 47.62
  Q 139.40 47.58 139.51 47.75
  A 0.21 0.20 -56.6 0 0 139.89 47.67
  C 140.63 42.40 140.31 37.26 138.63 32.26
  Q 138.35 31.44 138.86 32.14
  Q 140.31 34.14 141.00 36.43
  Q 141.87 39.33 142.60 40.84
  Q 145.71 47.21 145.95 54.50
  A 0.56 0.56 0.0 0 0 146.48 55.05
  L 146.77 55.07
  A 0.22 0.22 0.0 0 0 147.00 54.84
  L 146.87 49.53
  Q 146.80 47.23 147.76 49.32
  Q 151.28 57.07 152.50 65.51
  Q 152.67 66.67 152.81 65.50
  L 152.96 64.29
  A 0.56 0.56 0.0 0 1 154.02 64.12
  C 156.24 68.75 154.60 75.28 153.24 82.23
  C 151.72 89.93 150.91 97.10 147.38 104.76
  C 145.86 108.06 143.62 111.23 141.59 114.40
  A 0.33 0.33 0.0 0 0 141.78 114.90
  Q 142.00 114.96 142.12 115.13
  A 1.51 1.23 -67.4 0 1 142.38 116.00
  Q 142.23 124.00 142.04 132.00
  Q 142.02 133.12 142.24 134.38
  Q 142.28 134.62 142.51 134.62
  L 142.88 134.61
  Q 143.12 134.61 143.13 134.37
  L 143.31 123.76
  A 0.95 0.92 -24.8 0 1 143.53 123.19
  Q 145.11 121.34 145.08 118.38
  Q 145.08 118.08 145.23 117.96
  Q 145.54 117.73 145.83 117.98
  L 146.74 118.76
  A 0.38 0.38 0.0 0 0 147.35 118.38
  C 146.74 115.79 145.39 112.70 146.71 110.17
  C 148.25 107.23 149.32 104.12 150.44 101.00
  Q 150.62 100.52 151.54 99.97
  Q 152.09 99.64 151.50 99.37
  Q 151.12 99.19 150.87 98.85
  A 1.09 1.08 -57.7 0 1 150.68 97.98
  Q 151.47 94.07 152.61 90.26
  C 153.19 88.29 152.86 85.80 153.63 83.99
  Q 155.89 78.67 157.78 73.19
  C 158.72 70.46 160.72 69.66 163.34 70.44
  Q 163.77 70.56 163.82 70.12
  L 164.47 65.05
  A 0.81 0.80 26.3 0 1 165.84 64.59
  L 166.15 64.89
  A 0.59 0.58 -68.2 0 0 167.15 64.46
  L 167.00 58.73
  Q 166.98 58.16 167.54 58.26
  Q 169.34 58.58 170.48 59.11
  Q 171.27 59.49 171.83 59.19
  A 0.48 0.47 -38.8 0 0 171.92 58.41
  Q 168.77 55.78 168.49 54.02
  C 166.25 39.78 164.08 29.02 155.97 17.66
  C 155.42 16.89 154.41 16.03 153.88 15.11
  Q 152.94 13.48 152.59 13.07
  Q 144.85 3.85 135.02 0.00" />
    <path stroke="#6b6b79" vector-effect="non-scaling-stroke" d="
  M 111.85 200.00
  L 111.39 189.51
  A 1.50 1.50 0.0 0 1 112.84 187.95
  Q 117.95 187.78 123.11 187.96
  C 124.93 188.02 126.63 188.79 128.55 189.01
  A 0.59 0.58 -82.9 0 0 129.19 188.51
  Q 129.87 183.30 128.41 178.24
  A 0.17 0.17 0.0 0 0 128.07 178.30
  L 128.45 183.44
  A 1.02 1.01 1.2 0 1 127.32 184.52
  L 112.37 182.81
  A 5.24 5.23 -59.5 0 0 108.73 183.75
  C 104.61 186.68 99.42 190.94 94.12 191.13
  Q 89.38 191.30 86.87 191.66
  A 0.61 0.61 0.0 0 0 86.41 192.52
  Q 86.80 193.38 86.34 194.16
  Q 86.10 194.57 86.20 195.03
  Q 86.85 198.04 88.33 200.00" />
    <path stroke="#6b6b79" vector-effect="non-scaling-stroke" d="
  M 128.39 50.43
  Q 129.77 50.02 131.17 49.82
  Q 131.21 49.81 131.21 49.77
  L 131.18 49.47
  Q 131.16 49.25 130.94 49.24
  C 128.48 49.21 126.17 49.14 123.78 49.93
  C 120.94 50.87 112.55 53.13 111.23 55.89
  Q 110.79 56.80 111.72 56.40
  Q 117.77 53.79 124.23 51.39
  C 125.55 50.90 127.00 50.84 128.39 50.43" />
    <path stroke="#6b6b79" vector-effect="non-scaling-stroke" d="
  M 64.43 68.05
  Q 61.86 69.43 60.22 71.82
  Q 60.18 71.87 60.25 71.88
  Q 60.40 71.88 60.56 71.89
  Q 60.93 71.92 61.19 71.67
  Q 65.81 67.35 70.02 64.79
  C 76.33 60.95 83.32 61.92 90.45 61.81
  Q 90.98 61.80 91.35 62.20
  Q 91.72 62.60 92.26 62.65
  A 0.18 0.18 0.0 0 0 92.39 62.33
  L 89.85 60.20
  Q 89.45 59.86 89.16 60.29
  Q 88.76 60.89 88.24 60.74
  Q 84.12 59.55 80.73 60.04
  C 74.64 60.92 70.58 63.57 65.65 66.91
  Q 65.30 67.15 65.03 67.52
  Q 64.79 67.86 64.43 68.05" />
    <path stroke="#6b6b79" vector-effect="non-scaling-stroke" d="
  M 135.29 63.64
  C 131.93 63.02 128.45 61.57 125.23 63.56
  Q 122.70 65.13 120.42 66.89
  A 0.61 0.61 0.0 0 0 120.41 67.85
  L 120.62 68.02
  A 0.34 0.32 -39.3 0 0 120.99 68.05
  Q 130.39 62.84 139.86 67.86
  Q 141.11 68.52 140.71 67.16
  L 140.36 65.94
  Q 140.08 65.00 139.16 64.67
  Q 137.42 64.04 135.29 63.64" />
    <path stroke="#6b6b79" vector-effect="non-scaling-stroke" d="
  M 83.62 75.37
  Q 85.26 74.88 90.20 75.68
  A 0.44 0.44 0.0 0 0 90.70 75.27
  L 90.72 74.90
  Q 90.76 74.11 89.97 74.00
  L 82.10 73.00
  A 2.69 2.67 29.9 0 0 80.14 73.52
  L 71.13 80.45
  A 0.58 0.57 50.1 0 0 71.06 81.30
  Q 71.93 82.22 72.01 83.48
  A 0.29 0.29 0.0 0 0 72.55 83.62
  Q 76.50 77.50 83.62 75.37" />
    <path stroke="#6b6b79" vector-effect="non-scaling-stroke" d="
  M 161.00 76.13
  Q 163.99 75.58 165.35 78.22
  A 0.31 0.31 0.0 0 0 165.77 78.36
  Q 165.90 78.30 166.03 78.24
  Q 166.38 78.08 166.23 77.73
  Q 165.27 75.37 163.17 73.89
  Q 162.57 73.47 162.04 73.97
  L 160.59 75.33
  Q 159.43 76.42 161.00 76.13" />
    <path stroke="#6b6b79" vector-effect="non-scaling-stroke" d="
  M 101.00 86.12
  C 100.29 87.82 103.06 89.57 104.25 89.96
  Q 104.79 90.14 104.66 89.59
  L 103.44 84.26
  Q 102.94 82.07 101.49 83.72
  Q 101.12 84.14 101.12 85.52
  Q 101.12 85.83 101.00 86.12" />
    <path stroke="#6b6b79" vector-effect="non-scaling-stroke" d="
  M 107.55 88.84
  Q 107.74 88.66 107.61 88.44
  Q 107.35 87.97 106.86 87.74
  Q 106.24 87.46 106.14 88.14
  Q 106.05 88.76 106.66 89.02
  Q 107.14 89.23 107.55 88.84" />
    <path stroke="#6b6b79" vector-effect="non-scaling-stroke" d="
  M 58.81 94.38
  Q 58.78 94.42 58.82 94.44
  Q 60.49 95.65 62.10 96.94
  C 64.68 99.01 61.39 102.62 66.40 104.11
  Q 66.58 104.17 66.64 103.99
  L 66.64 103.98
  Q 66.70 103.80 66.50 103.72
  Q 65.57 103.31 64.82 102.64
  Q 64.41 102.28 64.35 101.73
  L 63.95 97.56
  A 0.75 0.75 0.0 0 0 63.65 97.05
  L 59.37 94.01
  Q 59.17 93.87 59.03 94.07
  L 58.81 94.38" />
    <path stroke="#6b6b79" vector-effect="non-scaling-stroke" d="
  M 65.25 106.43
  Q 66.77 107.70 68.97 108.13
  Q 69.13 108.17 69.13 108.00
  Q 69.13 107.86 69.11 107.73
  Q 69.05 107.28 68.61 107.18
  L 65.25 106.43" />
    <path stroke="#6b6b79" vector-effect="non-scaling-stroke" d="
  M 65.25 106.43
  Q 60.70 104.53 60.75 99.39
  Q 60.75 99.25 60.65 99.14
  L 60.41 98.90
  Q 60.33 98.82 60.32 98.93
  C 59.90 102.26 61.22 106.22 65.25 106.43" />
    <path stroke="#6b6b79" vector-effect="non-scaling-stroke" d="
  M 100.92 104.31
  Q 102.99 102.41 105.63 101.40
  Q 105.66 101.38 105.65 101.35
  L 105.55 101.08
  Q 105.43 100.75 105.12 100.93
  L 101.01 103.41
  Q 98.40 104.98 100.62 107.07
  L 105.17 111.35
  A 0.34 0.34 0.0 0 0 105.74 111.06
  C 105.26 107.88 110.45 107.41 112.61 107.07
  C 115.72 106.58 119.41 105.16 123.46 106.20
  Q 123.89 106.31 124.05 106.72
  L 124.20 107.11
  Q 124.42 107.69 124.81 107.21
  Q 126.49 105.12 126.95 102.47
  A 0.27 0.26 -20.8 0 0 126.48 102.26
  L 126.16 102.65
  Q 125.81 103.07 125.31 102.87
  C 123.74 102.22 122.25 101.51 120.49 101.64
  Q 112.70 102.20 105.60 105.57
  Q 104.52 106.08 104.32 107.12
  Q 104.18 107.83 103.51 107.57
  Q 101.84 106.91 100.80 105.45
  A 0.86 0.86 0.0 0 1 100.92 104.31" />
    <path stroke="#6b6b79" vector-effect="non-scaling-stroke" d="
  M 145.00 134.75
  L 143.74 134.88
  Q 143.72 134.88 143.74 134.88
  Q 148.18 134.90 152.55 134.23
  A 1.56 1.55 66.3 0 1 153.99 134.80
  C 156.78 138.33 158.90 142.32 162.06 145.64
  Q 162.44 146.04 162.41 146.61
  L 162.23 149.52
  Q 162.19 150.09 162.71 149.86
  Q 164.94 148.88 167.03 147.56
  Q 167.75 147.11 166.92 147.30
  Q 165.43 147.65 164.16 148.54
  Q 162.64 149.61 162.82 147.76
  L 162.99 146.05
  A 0.86 0.85 -62.5 0 0 162.79 145.40
  Q 159.23 141.16 156.28 136.49
  Q 155.33 134.98 152.99 133.56
  Q 152.56 133.29 152.10 133.50
  Q 149.41 134.71 146.02 134.11
  Q 145.60 134.03 145.50 134.34
  Q 145.38 134.70 145.00 134.75" />
    <path stroke="#6b6b79" vector-effect="non-scaling-stroke" d="
  M 133.71 160.45
  C 131.76 161.89 128.69 163.52 126.62 165.96
  Q 126.28 166.36 126.42 166.87
  Q 127.46 170.65 127.34 174.58
  Q 127.34 174.63 127.40 174.65
  Q 127.42 174.65 127.45 174.67
  Q 127.53 174.72 127.55 174.63
  Q 128.06 170.97 127.07 167.45
  C 126.41 165.12 127.96 165.23 129.31 164.26
  C 135.96 159.51 144.03 154.68 147.79 147.30
  Q 148.74 145.42 147.59 147.19
  Q 146.97 148.13 145.83 149.80
  Q 145.71 149.98 145.57 150.04
  Q 145.30 150.16 145.08 150.06
  Q 144.75 149.90 144.69 150.26
  L 144.61 150.73
  Q 144.55 151.09 144.33 151.37
  C 140.99 155.47 137.55 157.61 133.71 160.45" />
    <path stroke="#6b6b79" vector-effect="non-scaling-stroke" d="
  M 162.50 152.88
  Q 163.94 154.47 165.52 155.91
  Q 165.65 156.03 165.77 155.90
  L 165.78 155.89
  Q 165.87 155.80 165.79 155.72
  L 162.22 151.99
  A 0.22 0.22 0.0 0 0 161.84 152.16
  Q 161.92 152.82 162.50 152.88" />
    <path stroke="#6b6b79" vector-effect="non-scaling-stroke" d="
  M 161.03 162.23
  Q 160.80 162.33 160.87 162.60
  Q 160.89 162.65 160.92 162.61
  L 165.21 158.12
  Q 165.28 158.04 165.19 157.98
  L 164.95 157.84
  Q 164.79 157.75 164.70 157.91
  Q 163.57 159.94 161.53 161.05
  Q 160.95 161.36 161.13 162.04
  Q 161.17 162.18 161.03 162.23" />
    <path stroke="#6b6b79" vector-effect="non-scaling-stroke" d="
  M 53.18 169.51
  L 53.36 170.01
  A 0.16 0.16 0.0 0 0 53.57 170.11
  L 53.77 170.04
  A 13.14 0.35 -19.8 0 0 66.02 165.26
  L 65.96 165.10
  A 13.14 0.35 -19.8 0 0 53.48 169.23
  L 53.27 169.30
  A 0.16 0.16 0.0 0 0 53.18 169.51" />
    <path stroke="#6b6b79" vector-effect="non-scaling-stroke" d="
  M 144.29 180.96
  Q 143.66 181.42 143.90 182.18
  A 0.35 0.34 -41.0 0 0 144.54 182.22
  L 144.79 181.70
  Q 145.29 180.68 145.93 181.62
  Q 149.52 186.95 155.03 190.88
  Q 155.21 191.01 155.34 190.84
  L 155.35 190.83
  Q 155.48 190.65 155.31 190.52
  Q 148.45 184.98 143.77 177.55
  C 142.14 174.97 142.58 172.43 142.63 169.54
  Q 142.64 169.04 142.41 168.77
  Q 142.10 168.41 141.55 168.36
  Q 141.15 168.32 141.47 168.56
  Q 142.38 169.22 142.39 170.50
  Q 142.39 173.14 142.36 175.84
  Q 142.36 176.30 142.59 176.70
  L 144.49 180.02
  Q 144.81 180.58 144.29 180.96" />
    <path stroke="#6b6b79" vector-effect="non-scaling-stroke" d="
  M 71.57 181.81
  Q 69.41 176.97 68.70 171.69
  A 0.14 0.14 0.0 0 0 68.53 171.57
  L 68.26 171.62
  Q 68.01 171.66 68.07 171.91
  Q 69.09 176.31 70.51 180.55
  C 71.64 183.95 75.22 185.67 77.17 189.03
  Q 77.42 189.46 77.86 189.69
  C 79.51 190.54 83.58 192.86 83.88 194.83
  Q 83.89 194.86 83.89 194.83
  C 84.04 192.64 81.00 191.32 79.45 190.22
  C 76.82 188.35 75.09 185.27 72.58 183.15
  A 3.71 3.66 -82.4 0 1 71.57 181.81" />
    <path stroke="#6b6b79" vector-effect="non-scaling-stroke" d="
  M 119.9528 176.0298
  A 3.42 0.38 -40.7 0 0 117.1122 177.9719
  A 3.42 0.38 -40.7 0 0 114.7672 180.4902
  A 3.42 0.38 -40.7 0 0 117.6078 178.5481
  A 3.42 0.38 -40.7 0 0 119.9528 176.0298" />
    <path stroke="#6b6b79" vector-effect="non-scaling-stroke" d="
  M 29.04 177.24
  C 19.62 183.84 15.73 191.14 9.39 199.43
  Q 9.23 199.63 9.44 199.78
  L 9.66 199.94
  Q 9.79 200.04 9.88 199.91
  C 16.80 190.11 20.98 184.66 29.60 177.74
  Q 29.72 177.65 29.63 177.53
  L 29.46 177.31
  Q 29.28 177.07 29.04 177.24" />
    <path stroke="#6b6b79" vector-effect="non-scaling-stroke" d="
  M 93.78 178.11
  C 93.03 178.09 92.52 177.23 91.28 177.41
  Q 90.50 177.53 91.24 177.79
  Q 92.45 178.23 93.75 178.12
  Q 93.81 178.11 93.78 178.11" />
  </g>
  <path fill="#ffffff" d="
  M 0.00 0.00
  L 73.07 0.00
  Q 61.06 5.06 52.16 15.14
  Q 47.06 20.91 43.42 25.18
  C 38.05 31.46 33.51 35.62 27.24 39.94
  A 0.39 0.38 -47.7 0 0 27.27 40.59
  Q 27.53 40.74 28.02 40.59
  Q 32.68 39.08 38.88 35.63
  Q 40.35 34.82 39.46 36.24
  C 35.68 42.31 33.37 48.00 34.41 55.98
  C 34.75 58.64 35.15 61.13 34.35 63.77
  Q 33.02 68.18 31.39 72.30
  Q 30.95 73.39 31.96 72.79
  C 34.90 71.05 37.84 67.24 39.90 64.51
  Q 41.25 62.72 41.29 64.96
  Q 41.43 73.05 43.99 80.73
  Q 44.54 82.38 44.95 80.69
  L 46.27 75.29
  Q 46.40 74.74 46.62 75.26
  L 50.87 85.37
  Q 51.56 87.02 51.85 85.26
  L 52.31 82.50
  A 0.52 0.52 0.0 0 1 53.23 82.27
  L 57.06 87.19
  A 0.55 0.54 -43.7 0 1 57.04 87.88
  Q 56.65 88.33 55.98 88.06
  A 1.07 1.07 0.0 0 0 54.55 88.78
  C 52.99 94.61 52.92 102.38 57.98 106.29
  Q 61.75 109.20 71.01 115.17
  Q 71.38 115.40 71.77 115.42
  Q 72.26 115.44 72.61 115.36
  A 0.03 0.02 51.0 0 0 72.61 115.31
  C 67.93 112.67 57.79 106.98 55.41 102.08
  C 53.69 98.55 56.94 96.28 58.61 93.86
  Q 59.04 93.23 58.39 92.83
  L 57.22 92.10
  A 0.73 0.73 0.0 0 0 56.13 92.54
  L 55.76 93.95
  Q 55.64 94.41 55.17 94.39
  Q 55.01 94.38 54.89 94.28
  Q 54.67 94.12 54.65 93.69
  Q 54.54 91.60 55.16 89.51
  Q 55.30 89.04 55.76 88.86
  C 58.47 87.77 63.93 92.38 64.91 94.82
  Q 67.58 101.47 71.58 109.50
  C 74.57 115.51 84.45 120.40 90.15 123.59
  C 90.82 123.97 91.64 124.85 91.87 125.76
  Q 93.68 132.83 94.03 140.20
  A 0.94 0.92 71.5 0 1 93.64 141.00
  Q 88.01 144.97 84.39 146.66
  C 80.35 148.53 75.72 150.12 74.15 153.70
  Q 70.42 162.22 62.15 171.95
  Q 60.16 174.29 62.41 177.61
  Q 62.47 177.70 62.37 177.72
  Q 62.00 177.80 62.27 177.86
  Q 62.39 177.88 62.36 177.76
  L 61.62 174.72
  A 2.24 2.22 -29.1 0 1 62.23 172.60
  Q 64.67 170.20 67.00 167.40
  C 71.92 161.48 73.21 152.38 80.53 149.04
  Q 87.63 145.79 93.90 141.87
  A 0.74 0.74 0.0 0 1 95.03 142.47
  C 95.21 147.96 97.06 152.34 96.89 158.42
  C 96.77 162.48 93.50 165.23 91.51 167.80
  Q 89.93 169.85 87.80 171.44
  Q 87.40 171.74 87.27 172.22
  Q 86.63 174.54 86.74 176.95
  Q 86.77 177.78 87.11 177.02
  C 87.55 176.06 87.12 174.87 87.32 174.04
  C 87.97 171.26 91.48 168.54 93.34 166.28
  C 95.62 163.51 97.88 163.70 97.68 158.74
  Q 97.53 154.82 97.09 152.47
  C 96.79 150.85 96.95 149.15 96.62 147.54
  Q 96.16 145.36 96.03 143.90
  C 95.85 142.07 95.24 140.35 95.03 138.68
  Q 94.33 133.08 93.17 127.77
  A 0.71 0.70 -83.5 0 1 94.16 126.98
  Q 97.20 128.41 100.01 130.12
  Q 102.03 131.35 105.11 134.29
  Q 109.02 138.01 113.65 140.84
  Q 116.24 142.42 118.09 140.34
  Q 122.57 135.29 125.01 132.88
  C 125.34 132.57 125.97 132.49 126.38 132.09
  Q 134.07 124.42 140.96 116.06
  Q 141.10 115.89 140.93 115.75
  L 140.93 115.74
  Q 140.76 115.60 140.61 115.77
  C 134.67 122.74 127.74 130.37 120.05 135.44
  Q 119.63 135.72 119.13 135.69
  Q 116.48 135.55 113.81 135.45
  Q 111.55 135.37 109.65 134.36
  C 101.10 129.83 92.80 124.53 84.46 119.60
  C 78.21 115.92 72.66 111.78 69.96 104.75
  Q 65.20 92.38 57.44 81.63
  C 56.27 80.02 55.81 77.63 55.84 75.96
  Q 55.90 72.06 57.01 75.80
  Q 57.21 76.47 58.46 77.69
  Q 59.10 78.32 58.86 77.46
  C 58.06 74.60 57.12 72.08 57.12 69.11
  C 57.12 63.73 56.72 57.93 58.04 52.77
  Q 58.25 51.94 58.42 52.78
  L 61.14 66.47
  A 0.41 0.41 0.0 0 0 61.95 66.44
  Q 62.52 61.94 63.14 56.75
  Q 63.58 53.06 66.21 47.99
  Q 66.35 47.73 66.39 48.02
  L 68.29 60.25
  Q 68.72 63.00 69.00 60.23
  Q 69.77 52.64 71.77 45.25
  Q 71.81 45.11 72.00 45.16
  L 72.00 45.16
  Q 72.02 45.16 72.00 45.49
  L 71.51 53.54
  Q 71.48 53.93 71.86 54.07
  Q 72.06 54.14 72.22 54.05
  Q 72.37 53.97 72.44 53.67
  C 74.07 46.07 77.10 38.79 80.35 31.86
  Q 80.76 30.99 80.62 31.94
  Q 79.07 43.07 80.65 54.23
  Q 81.14 57.71 81.72 54.24
  C 83.23 45.25 85.59 34.76 89.33 25.99
  Q 89.69 25.16 89.80 26.05
  Q 90.24 29.59 90.26 33.11
  Q 90.29 37.27 90.89 40.07
  C 91.72 43.91 92.18 49.59 94.41 52.83
  Q 94.95 53.62 94.64 52.72
  Q 92.88 47.64 91.79 42.16
  C 90.37 35.09 90.65 27.88 91.70 20.83
  Q 92.04 18.56 92.52 20.81
  Q 94.84 31.66 99.16 41.86
  Q 99.26 42.10 99.45 42.03
  L 99.46 42.03
  Q 99.63 41.96 99.54 41.70
  Q 96.24 32.16 94.16 22.27
  Q 93.55 19.36 95.26 21.76
  C 96.09 22.93 96.82 24.82 97.90 26.16
  Q 103.64 33.29 108.71 40.91
  C 109.68 42.37 110.36 44.22 111.32 45.69
  Q 111.91 46.61 111.61 45.55
  Q 109.58 38.35 106.55 31.51
  Q 105.82 29.87 107.01 31.21
  L 116.40 41.84
  Q 116.47 41.92 116.55 41.86
  L 116.77 41.70
  Q 116.80 41.68 116.78 41.64
  C 113.98 37.37 110.94 32.91 109.13 28.18
  Q 108.55 26.65 109.58 27.93
  Q 116.02 35.91 122.85 44.38
  Q 124.34 46.24 125.01 47.28
  Q 126.17 49.08 125.71 46.99
  Q 123.95 38.99 121.19 31.27
  Q 119.80 27.38 122.50 30.50
  Q 125.18 33.61 127.50 36.89
  C 130.55 41.18 134.48 45.65 137.07 50.40
  Q 138.79 53.56 138.38 49.98
  L 137.29 40.25
  Q 137.26 39.96 137.42 39.93
  L 137.43 39.93
  Q 137.60 39.90 137.64 40.12
  L 139.03 47.49
  Q 139.07 47.67 139.25 47.62
  Q 139.40 47.58 139.51 47.75
  A 0.21 0.20 -56.6 0 0 139.89 47.67
  C 140.63 42.40 140.31 37.26 138.63 32.26
  Q 138.35 31.44 138.86 32.14
  Q 140.31 34.14 141.00 36.43
  Q 141.87 39.33 142.60 40.84
  Q 145.71 47.21 145.95 54.50
  A 0.56 0.56 0.0 0 0 146.48 55.05
  L 146.77 55.07
  A 0.22 0.22 0.0 0 0 147.00 54.84
  L 146.87 49.53
  Q 146.80 47.23 147.76 49.32
  Q 151.28 57.07 152.50 65.51
  Q 152.67 66.67 152.81 65.50
  L 152.96 64.29
  A 0.56 0.56 0.0 0 1 154.02 64.12
  C 156.24 68.75 154.60 75.28 153.24 82.23
  C 151.72 89.93 150.91 97.10 147.38 104.76
  C 145.86 108.06 143.62 111.23 141.59 114.40
  A 0.33 0.33 0.0 0 0 141.78 114.90
  Q 142.00 114.96 142.12 115.13
  A 1.51 1.23 -67.4 0 1 142.38 116.00
  Q 142.23 124.00 142.04 132.00
  Q 142.02 133.12 142.24 134.38
  Q 142.28 134.62 142.51 134.62
  L 142.88 134.61
  Q 143.12 134.61 143.13 134.37
  L 143.31 123.76
  A 0.95 0.92 -24.8 0 1 143.53 123.19
  Q 145.11 121.34 145.08 118.38
  Q 145.08 118.08 145.23 117.96
  Q 145.54 117.73 145.83 117.98
  L 146.74 118.76
  A 0.38 0.38 0.0 0 0 147.35 118.38
  C 146.74 115.79 145.39 112.70 146.71 110.17
  C 148.25 107.23 149.32 104.12 150.44 101.00
  Q 150.62 100.52 151.54 99.97
  Q 152.09 99.64 151.50 99.37
  Q 151.12 99.19 150.87 98.85
  A 1.09 1.08 -57.7 0 1 150.68 97.98
  Q 151.47 94.07 152.61 90.26
  C 153.19 88.29 152.86 85.80 153.63 83.99
  Q 155.89 78.67 157.78 73.19
  C 158.72 70.46 160.72 69.66 163.34 70.44
  Q 163.77 70.56 163.82 70.12
  L 164.47 65.05
  A 0.81 0.80 26.3 0 1 165.84 64.59
  L 166.15 64.89
  A 0.59 0.58 -68.2 0 0 167.15 64.46
  L 167.00 58.73
  Q 166.98 58.16 167.54 58.26
  Q 169.34 58.58 170.48 59.11
  Q 171.27 59.49 171.83 59.19
  A 0.48 0.47 -38.8 0 0 171.92 58.41
  Q 168.77 55.78 168.49 54.02
  C 166.25 39.78 164.08 29.02 155.97 17.66
  C 155.42 16.89 154.41 16.03 153.88 15.11
  Q 152.94 13.48 152.59 13.07
  Q 144.85 3.85 135.02 0.00
  L 200.00 0.00
  L 200.00 200.00
  L 111.85 200.00
  L 111.39 189.51
  A 1.50 1.50 0.0 0 1 112.84 187.95
  Q 117.95 187.78 123.11 187.96
  C 124.93 188.02 126.63 188.79 128.55 189.01
  A 0.59 0.58 -82.9 0 0 129.19 188.51
  Q 129.87 183.30 128.41 178.24
  A 0.17 0.17 0.0 0 0 128.07 178.30
  L 128.45 183.44
  A 1.02 1.01 1.2 0 1 127.32 184.52
  L 112.37 182.81
  A 5.24 5.23 -59.5 0 0 108.73 183.75
  C 104.61 186.68 99.42 190.94 94.12 191.13
  Q 89.38 191.30 86.87 191.66
  A 0.61 0.61 0.0 0 0 86.41 192.52
  Q 86.80 193.38 86.34 194.16
  Q 86.10 194.57 86.20 195.03
  Q 86.85 198.04 88.33 200.00
  L 0.00 200.00
  L 0.00 0.00
  Z
  M 128.39 50.43
  Q 129.77 50.02 131.17 49.82
  Q 131.21 49.81 131.21 49.77
  L 131.18 49.47
  Q 131.16 49.25 130.94 49.24
  C 128.48 49.21 126.17 49.14 123.78 49.93
  C 120.94 50.87 112.55 53.13 111.23 55.89
  Q 110.79 56.80 111.72 56.40
  Q 117.77 53.79 124.23 51.39
  C 125.55 50.90 127.00 50.84 128.39 50.43
  Z
  M 64.43 68.05
  Q 61.86 69.43 60.22 71.82
  Q 60.18 71.87 60.25 71.88
  Q 60.40 71.88 60.56 71.89
  Q 60.93 71.92 61.19 71.67
  Q 65.81 67.35 70.02 64.79
  C 76.33 60.95 83.32 61.92 90.45 61.81
  Q 90.98 61.80 91.35 62.20
  Q 91.72 62.60 92.26 62.65
  A 0.18 0.18 0.0 0 0 92.39 62.33
  L 89.85 60.20
  Q 89.45 59.86 89.16 60.29
  Q 88.76 60.89 88.24 60.74
  Q 84.12 59.55 80.73 60.04
  C 74.64 60.92 70.58 63.57 65.65 66.91
  Q 65.30 67.15 65.03 67.52
  Q 64.79 67.86 64.43 68.05
  Z
  M 135.29 63.64
  C 131.93 63.02 128.45 61.57 125.23 63.56
  Q 122.70 65.13 120.42 66.89
  A 0.61 0.61 0.0 0 0 120.41 67.85
  L 120.62 68.02
  A 0.34 0.32 -39.3 0 0 120.99 68.05
  Q 130.39 62.84 139.86 67.86
  Q 141.11 68.52 140.71 67.16
  L 140.36 65.94
  Q 140.08 65.00 139.16 64.67
  Q 137.42 64.04 135.29 63.64
  Z
  M 83.62 75.37
  Q 85.26 74.88 90.20 75.68
  A 0.44 0.44 0.0 0 0 90.70 75.27
  L 90.72 74.90
  Q 90.76 74.11 89.97 74.00
  L 82.10 73.00
  A 2.69 2.67 29.9 0 0 80.14 73.52
  L 71.13 80.45
  A 0.58 0.57 50.1 0 0 71.06 81.30
  Q 71.93 82.22 72.01 83.48
  A 0.29 0.29 0.0 0 0 72.55 83.62
  Q 76.50 77.50 83.62 75.37
  Z
  M 161.00 76.13
  Q 163.99 75.58 165.35 78.22
  A 0.31 0.31 0.0 0 0 165.77 78.36
  Q 165.90 78.30 166.03 78.24
  Q 166.38 78.08 166.23 77.73
  Q 165.27 75.37 163.17 73.89
  Q 162.57 73.47 162.04 73.97
  L 160.59 75.33
  Q 159.43 76.42 161.00 76.13
  Z
  M 101.00 86.12
  C 100.29 87.82 103.06 89.57 104.25 89.96
  Q 104.79 90.14 104.66 89.59
  L 103.44 84.26
  Q 102.94 82.07 101.49 83.72
  Q 101.12 84.14 101.12 85.52
  Q 101.12 85.83 101.00 86.12
  Z
  M 107.55 88.84
  Q 107.74 88.66 107.61 88.44
  Q 107.35 87.97 106.86 87.74
  Q 106.24 87.46 106.14 88.14
  Q 106.05 88.76 106.66 89.02
  Q 107.14 89.23 107.55 88.84
  Z
  M 58.81 94.38
  Q 58.78 94.42 58.82 94.44
  Q 60.49 95.65 62.10 96.94
  C 64.68 99.01 61.39 102.62 66.40 104.11
  Q 66.58 104.17 66.64 103.99
  L 66.64 103.98
  Q 66.70 103.80 66.50 103.72
  Q 65.57 103.31 64.82 102.64
  Q 64.41 102.28 64.35 101.73
  L 63.95 97.56
  A 0.75 0.75 0.0 0 0 63.65 97.05
  L 59.37 94.01
  Q 59.17 93.87 59.03 94.07
  L 58.81 94.38
  Z
  M 65.25 106.43
  Q 66.77 107.70 68.97 108.13
  Q 69.13 108.17 69.13 108.00
  Q 69.13 107.86 69.11 107.73
  Q 69.05 107.28 68.61 107.18
  L 65.25 106.43
  Q 60.70 104.53 60.75 99.39
  Q 60.75 99.25 60.65 99.14
  L 60.41 98.90
  Q 60.33 98.82 60.32 98.93
  C 59.90 102.26 61.22 106.22 65.25 106.43
  Z
  M 100.92 104.31
  Q 102.99 102.41 105.63 101.40
  Q 105.66 101.38 105.65 101.35
  L 105.55 101.08
  Q 105.43 100.75 105.12 100.93
  L 101.01 103.41
  Q 98.40 104.98 100.62 107.07
  L 105.17 111.35
  A 0.34 0.34 0.0 0 0 105.74 111.06
  C 105.26 107.88 110.45 107.41 112.61 107.07
  C 115.72 106.58 119.41 105.16 123.46 106.20
  Q 123.89 106.31 124.05 106.72
  L 124.20 107.11
  Q 124.42 107.69 124.81 107.21
  Q 126.49 105.12 126.95 102.47
  A 0.27 0.26 -20.8 0 0 126.48 102.26
  L 126.16 102.65
  Q 125.81 103.07 125.31 102.87
  C 123.74 102.22 122.25 101.51 120.49 101.64
  Q 112.70 102.20 105.60 105.57
  Q 104.52 106.08 104.32 107.12
  Q 104.18 107.83 103.51 107.57
  Q 101.84 106.91 100.80 105.45
  A 0.86 0.86 0.0 0 1 100.92 104.31
  Z
  M 145.00 134.75
  L 143.74 134.88
  Q 143.72 134.88 143.74 134.88
  Q 148.18 134.90 152.55 134.23
  A 1.56 1.55 66.3 0 1 153.99 134.80
  C 156.78 138.33 158.90 142.32 162.06 145.64
  Q 162.44 146.04 162.41 146.61
  L 162.23 149.52
  Q 162.19 150.09 162.71 149.86
  Q 164.94 148.88 167.03 147.56
  Q 167.75 147.11 166.92 147.30
  Q 165.43 147.65 164.16 148.54
  Q 162.64 149.61 162.82 147.76
  L 162.99 146.05
  A 0.86 0.85 -62.5 0 0 162.79 145.40
  Q 159.23 141.16 156.28 136.49
  Q 155.33 134.98 152.99 133.56
  Q 152.56 133.29 152.10 133.50
  Q 149.41 134.71 146.02 134.11
  Q 145.60 134.03 145.50 134.34
  Q 145.38 134.70 145.00 134.75
  Z
  M 133.71 160.45
  C 131.76 161.89 128.69 163.52 126.62 165.96
  Q 126.28 166.36 126.42 166.87
  Q 127.46 170.65 127.34 174.58
  Q 127.34 174.63 127.40 174.65
  Q 127.42 174.65 127.45 174.67
  Q 127.53 174.72 127.55 174.63
  Q 128.06 170.97 127.07 167.45
  C 126.41 165.12 127.96 165.23 129.31 164.26
  C 135.96 159.51 144.03 154.68 147.79 147.30
  Q 148.74 145.42 147.59 147.19
  Q 146.97 148.13 145.83 149.80
  Q 145.71 149.98 145.57 150.04
  Q 145.30 150.16 145.08 150.06
  Q 144.75 149.90 144.69 150.26
  L 144.61 150.73
  Q 144.55 151.09 144.33 151.37
  C 140.99 155.47 137.55 157.61 133.71 160.45
  Z
  M 162.50 152.88
  Q 163.94 154.47 165.52 155.91
  Q 165.65 156.03 165.77 155.90
  L 165.78 155.89
  Q 165.87 155.80 165.79 155.72
  L 162.22 151.99
  A 0.22 0.22 0.0 0 0 161.84 152.16
  Q 161.92 152.82 162.50 152.88
  Z
  M 161.03 162.23
  Q 160.80 162.33 160.87 162.60
  Q 160.89 162.65 160.92 162.61
  L 165.21 158.12
  Q 165.28 158.04 165.19 157.98
  L 164.95 157.84
  Q 164.79 157.75 164.70 157.91
  Q 163.57 159.94 161.53 161.05
  Q 160.95 161.36 161.13 162.04
  Q 161.17 162.18 161.03 162.23
  Z
  M 53.18 169.51
  L 53.36 170.01
  A 0.16 0.16 0.0 0 0 53.57 170.11
  L 53.77 170.04
  A 13.14 0.35 -19.8 0 0 66.02 165.26
  L 65.96 165.10
  A 13.14 0.35 -19.8 0 0 53.48 169.23
  L 53.27 169.30
  A 0.16 0.16 0.0 0 0 53.18 169.51
  Z
  M 144.29 180.96
  Q 143.66 181.42 143.90 182.18
  A 0.35 0.34 -41.0 0 0 144.54 182.22
  L 144.79 181.70
  Q 145.29 180.68 145.93 181.62
  Q 149.52 186.95 155.03 190.88
  Q 155.21 191.01 155.34 190.84
  L 155.35 190.83
  Q 155.48 190.65 155.31 190.52
  Q 148.45 184.98 143.77 177.55
  C 142.14 174.97 142.58 172.43 142.63 169.54
  Q 142.64 169.04 142.41 168.77
  Q 142.10 168.41 141.55 168.36
  Q 141.15 168.32 141.47 168.56
  Q 142.38 169.22 142.39 170.50
  Q 142.39 173.14 142.36 175.84
  Q 142.36 176.30 142.59 176.70
  L 144.49 180.02
  Q 144.81 180.58 144.29 180.96
  Z
  M 71.57 181.81
  Q 69.41 176.97 68.70 171.69
  A 0.14 0.14 0.0 0 0 68.53 171.57
  L 68.26 171.62
  Q 68.01 171.66 68.07 171.91
  Q 69.09 176.31 70.51 180.55
  C 71.64 183.95 75.22 185.67 77.17 189.03
  Q 77.42 189.46 77.86 189.69
  C 79.51 190.54 83.58 192.86 83.88 194.83
  Q 83.89 194.86 83.89 194.83
  C 84.04 192.64 81.00 191.32 79.45 190.22
  C 76.82 188.35 75.09 185.27 72.58 183.15
  A 3.71 3.66 -82.4 0 1 71.57 181.81
  Z
  M 119.9528 176.0298
  A 3.42 0.38 -40.7 0 0 117.1122 177.9719
  A 3.42 0.38 -40.7 0 0 114.7672 180.4902
  A 3.42 0.38 -40.7 0 0 117.6078 178.5481
  A 3.42 0.38 -40.7 0 0 119.9528 176.0298
  Z
  M 29.04 177.24
  C 19.62 183.84 15.73 191.14 9.39 199.43
  Q 9.23 199.63 9.44 199.78
  L 9.66 199.94
  Q 9.79 200.04 9.88 199.91
  C 16.80 190.11 20.98 184.66 29.60 177.74
  Q 29.72 177.65 29.63 177.53
  L 29.46 177.31
  Q 29.28 177.07 29.04 177.24
  Z
  M 93.78 178.11
  C 93.03 178.09 92.52 177.23 91.28 177.41
  Q 90.50 177.53 91.24 177.79
  Q 92.45 178.23 93.75 178.12
  Q 93.81 178.11 93.78 178.11
  Z" />
  <path fill="#2d0f15" d="
  M 73.07 0.00
  L 135.02 0.00
  Q 144.85 3.85 152.59 13.07
  Q 152.94 13.48 153.88 15.11
  C 154.41 16.03 155.42 16.89 155.97 17.66
  C 164.08 29.02 166.25 39.78 168.49 54.02
  Q 168.77 55.78 171.92 58.41
  A 0.48 0.47 -38.8 0 1 171.83 59.19
  Q 171.27 59.49 170.48 59.11
  Q 169.34 58.58 167.54 58.26
  Q 166.98 58.16 167.00 58.73
  L 167.15 64.46
  A 0.59 0.58 -68.2 0 1 166.15 64.89
  L 165.84 64.59
  A 0.81 0.80 26.3 0 0 164.47 65.05
  L 163.82 70.12
  Q 163.77 70.56 163.34 70.44
  C 160.72 69.66 158.72 70.46 157.78 73.19
  Q 155.89 78.67 153.63 83.99
  C 152.86 85.80 153.19 88.29 152.61 90.26
  Q 151.47 94.07 150.68 97.98
  A 1.09 1.08 -57.7 0 0 150.87 98.85
  Q 151.12 99.19 151.50 99.37
  Q 152.09 99.64 151.54 99.97
  Q 150.62 100.52 150.44 101.00
  C 149.32 104.12 148.25 107.23 146.71 110.17
  C 145.39 112.70 146.74 115.79 147.35 118.38
  A 0.38 0.38 0.0 0 1 146.74 118.76
  L 145.83 117.98
  Q 145.54 117.73 145.23 117.96
  Q 145.08 118.08 145.08 118.38
  Q 145.11 121.34 143.53 123.19
  A 0.95 0.92 -24.8 0 0 143.31 123.76
  L 143.13 134.37
  Q 143.12 134.61 142.88 134.61
  L 142.51 134.62
  Q 142.28 134.62 142.24 134.38
  Q 142.02 133.12 142.04 132.00
  Q 142.23 124.00 142.38 116.00
  A 1.51 1.23 -67.4 0 0 142.12 115.13
  Q 142.00 114.96 141.78 114.90
  A 0.33 0.33 0.0 0 1 141.59 114.40
  C 143.62 111.23 145.86 108.06 147.38 104.76
  C 150.91 97.10 151.72 89.93 153.24 82.23
  C 154.60 75.28 156.24 68.75 154.02 64.12
  A 0.56 0.56 0.0 0 0 152.96 64.29
  L 152.81 65.50
  Q 152.67 66.67 152.50 65.51
  Q 151.28 57.07 147.76 49.32
  Q 146.80 47.23 146.87 49.53
  L 147.00 54.84
  A 0.22 0.22 0.0 0 1 146.77 55.07
  L 146.48 55.05
  A 0.56 0.56 0.0 0 1 145.95 54.50
  Q 145.71 47.21 142.60 40.84
  Q 141.87 39.33 141.00 36.43
  Q 140.31 34.14 138.86 32.14
  Q 138.35 31.44 138.63 32.26
  C 140.31 37.26 140.63 42.40 139.89 47.67
  A 0.21 0.20 -56.6 0 1 139.51 47.75
  Q 139.40 47.58 139.25 47.62
  Q 139.07 47.67 139.03 47.49
  L 137.64 40.12
  Q 137.60 39.90 137.43 39.93
  L 137.42 39.93
  Q 137.26 39.96 137.29 40.25
  L 138.38 49.98
  Q 138.79 53.56 137.07 50.40
  C 134.48 45.65 130.55 41.18 127.50 36.89
  Q 125.18 33.61 122.50 30.50
  Q 119.80 27.38 121.19 31.27
  Q 123.95 38.99 125.71 46.99
  Q 126.17 49.08 125.01 47.28
  Q 124.34 46.24 122.85 44.38
  Q 116.02 35.91 109.58 27.93
  Q 108.55 26.65 109.13 28.18
  C 110.94 32.91 113.98 37.37 116.78 41.64
  Q 116.80 41.68 116.77 41.70
  L 116.55 41.86
  Q 116.47 41.92 116.40 41.84
  L 107.01 31.21
  Q 105.82 29.87 106.55 31.51
  Q 109.58 38.35 111.61 45.55
  Q 111.91 46.61 111.32 45.69
  C 110.36 44.22 109.68 42.37 108.71 40.91
  Q 103.64 33.29 97.90 26.16
  C 96.82 24.82 96.09 22.93 95.26 21.76
  Q 93.55 19.36 94.16 22.27
  Q 96.24 32.16 99.54 41.70
  Q 99.63 41.96 99.46 42.03
  L 99.45 42.03
  Q 99.26 42.10 99.16 41.86
  Q 94.84 31.66 92.52 20.81
  Q 92.04 18.56 91.70 20.83
  C 90.65 27.88 90.37 35.09 91.79 42.16
  Q 92.88 47.64 94.64 52.72
  Q 94.95 53.62 94.41 52.83
  C 92.18 49.59 91.72 43.91 90.89 40.07
  Q 90.29 37.27 90.26 33.11
  Q 90.24 29.59 89.80 26.05
  Q 89.69 25.16 89.33 25.99
  C 85.59 34.76 83.23 45.25 81.72 54.24
  Q 81.14 57.71 80.65 54.23
  Q 79.07 43.07 80.62 31.94
  Q 80.76 30.99 80.35 31.86
  C 77.10 38.79 74.07 46.07 72.44 53.67
  Q 72.37 53.97 72.22 54.05
  Q 72.06 54.14 71.86 54.07
  Q 71.48 53.93 71.51 53.54
  L 72.00 45.49
  Q 72.02 45.16 72.00 45.16
  L 72.00 45.16
  Q 71.81 45.11 71.77 45.25
  Q 69.77 52.64 69.00 60.23
  Q 68.72 63.00 68.29 60.25
  L 66.39 48.02
  Q 66.35 47.73 66.21 47.99
  Q 63.58 53.06 63.14 56.75
  Q 62.52 61.94 61.95 66.44
  A 0.41 0.41 0.0 0 1 61.14 66.47
  L 58.42 52.78
  Q 58.25 51.94 58.04 52.77
  C 56.72 57.93 57.12 63.73 57.12 69.11
  C 57.12 72.08 58.06 74.60 58.86 77.46
  Q 59.10 78.32 58.46 77.69
  Q 57.21 76.47 57.01 75.80
  Q 55.90 72.06 55.84 75.96
  C 55.81 77.63 56.27 80.02 57.44 81.63
  Q 65.20 92.38 69.96 104.75
  C 72.66 111.78 78.21 115.92 84.46 119.60
  C 92.80 124.53 101.10 129.83 109.65 134.36
  Q 111.55 135.37 113.81 135.45
  Q 116.48 135.55 119.13 135.69
  Q 119.63 135.72 120.05 135.44
  C 127.74 130.37 134.67 122.74 140.61 115.77
  Q 140.76 115.60 140.93 115.74
  L 140.93 115.75
  Q 141.10 115.89 140.96 116.06
  Q 134.07 124.42 126.38 132.09
  C 125.97 132.49 125.34 132.57 125.01 132.88
  Q 122.57 135.29 118.09 140.34
  Q 116.24 142.42 113.65 140.84
  Q 109.02 138.01 105.11 134.29
  Q 102.03 131.35 100.01 130.12
  Q 97.20 128.41 94.16 126.98
  A 0.71 0.70 -83.5 0 0 93.17 127.77
  Q 94.33 133.08 95.03 138.68
  C 95.24 140.35 95.85 142.07 96.03 143.90
  Q 96.16 145.36 96.62 147.54
  C 96.95 149.15 96.79 150.85 97.09 152.47
  Q 97.53 154.82 97.68 158.74
  C 97.88 163.70 95.62 163.51 93.34 166.28
  C 91.48 168.54 87.97 171.26 87.32 174.04
  C 87.12 174.87 87.55 176.06 87.11 177.02
  Q 86.77 177.78 86.74 176.95
  Q 86.63 174.54 87.27 172.22
  Q 87.40 171.74 87.80 171.44
  Q 89.93 169.85 91.51 167.80
  C 93.50 165.23 96.77 162.48 96.89 158.42
  C 97.06 152.34 95.21 147.96 95.03 142.47
  A 0.74 0.74 0.0 0 0 93.90 141.87
  Q 87.63 145.79 80.53 149.04
  C 73.21 152.38 71.92 161.48 67.00 167.40
  Q 64.67 170.20 62.23 172.60
  A 2.24 2.22 -29.1 0 0 61.62 174.72
  L 62.36 177.76
  Q 62.39 177.88 62.27 177.86
  Q 62.00 177.80 62.37 177.72
  Q 62.47 177.70 62.41 177.61
  Q 60.16 174.29 62.15 171.95
  Q 70.42 162.22 74.15 153.70
  C 75.72 150.12 80.35 148.53 84.39 146.66
  Q 88.01 144.97 93.64 141.00
  A 0.94 0.92 71.5 0 0 94.03 140.20
  Q 93.68 132.83 91.87 125.76
  C 91.64 124.85 90.82 123.97 90.15 123.59
  C 84.45 120.40 74.57 115.51 71.58 109.50
  Q 67.58 101.47 64.91 94.82
  C 63.93 92.38 58.47 87.77 55.76 88.86
  Q 55.30 89.04 55.16 89.51
  Q 54.54 91.60 54.65 93.69
  Q 54.67 94.12 54.89 94.28
  Q 55.01 94.38 55.17 94.39
  Q 55.64 94.41 55.76 93.95
  L 56.13 92.54
  A 0.73 0.73 0.0 0 1 57.22 92.10
  L 58.39 92.83
  Q 59.04 93.23 58.61 93.86
  C 56.94 96.28 53.69 98.55 55.41 102.08
  C 57.79 106.98 67.93 112.67 72.61 115.31
  A 0.03 0.02 51.0 0 1 72.61 115.36
  Q 72.26 115.44 71.77 115.42
  Q 71.38 115.40 71.01 115.17
  Q 61.75 109.20 57.98 106.29
  C 52.92 102.38 52.99 94.61 54.55 88.78
  A 1.07 1.07 0.0 0 1 55.98 88.06
  Q 56.65 88.33 57.04 87.88
  A 0.55 0.54 -43.7 0 0 57.06 87.19
  L 53.23 82.27
  A 0.52 0.52 0.0 0 0 52.31 82.50
  L 51.85 85.26
  Q 51.56 87.02 50.87 85.37
  L 46.62 75.26
  Q 46.40 74.74 46.27 75.29
  L 44.95 80.69
  Q 44.54 82.38 43.99 80.73
  Q 41.43 73.05 41.29 64.96
  Q 41.25 62.72 39.90 64.51
  C 37.84 67.24 34.90 71.05 31.96 72.79
  Q 30.95 73.39 31.39 72.30
  Q 33.02 68.18 34.35 63.77
  C 35.15 61.13 34.75 58.64 34.41 55.98
  C 33.37 48.00 35.68 42.31 39.46 36.24
  Q 40.35 34.82 38.88 35.63
  Q 32.68 39.08 28.02 40.59
  Q 27.53 40.74 27.27 40.59
  A 0.39 0.38 -47.7 0 1 27.24 39.94
  C 33.51 35.62 38.05 31.46 43.42 25.18
  Q 47.06 20.91 52.16 15.14
  Q 61.06 5.06 73.07 0.00
  Z" />
  <path fill="#2d0f15" d="
  M 128.39 50.43
  C 127.00 50.84 125.55 50.90 124.23 51.39
  Q 117.77 53.79 111.72 56.40
  Q 110.79 56.80 111.23 55.89
  C 112.55 53.13 120.94 50.87 123.78 49.93
  C 126.17 49.14 128.48 49.21 130.94 49.24
  Q 131.16 49.25 131.18 49.47
  L 131.21 49.77
  Q 131.21 49.81 131.17 49.82
  Q 129.77 50.02 128.39 50.43
  Z" />
  <path fill="#2d0f15" d="
  M 65.03 67.52
  Q 65.30 67.15 65.65 66.91
  C 70.58 63.57 74.64 60.92 80.73 60.04
  Q 84.12 59.55 88.24 60.74
  Q 88.76 60.89 89.16 60.29
  Q 89.45 59.86 89.85 60.20
  L 92.39 62.33
  A 0.18 0.18 0.0 0 1 92.26 62.65
  Q 91.72 62.60 91.35 62.20
  Q 90.98 61.80 90.45 61.81
  C 83.32 61.92 76.33 60.95 70.02 64.79
  Q 65.81 67.35 61.19 71.67
  Q 60.93 71.92 60.56 71.89
  Q 60.40 71.88 60.25 71.88
  Q 60.18 71.87 60.22 71.82
  Q 61.86 69.43 64.43 68.05
  Q 64.79 67.86 65.03 67.52
  Z" />
  <path fill="#2d0f15" d="
  M 135.29 63.64
  Q 137.42 64.04 139.16 64.67
  Q 140.08 65.00 140.36 65.94
  L 140.71 67.16
  Q 141.11 68.52 139.86 67.86
  Q 130.39 62.84 120.99 68.05
  A 0.34 0.32 -39.3 0 1 120.62 68.02
  L 120.41 67.85
  A 0.61 0.61 0.0 0 1 120.42 66.89
  Q 122.70 65.13 125.23 63.56
  C 128.45 61.57 131.93 63.02 135.29 63.64
  Z" />
  <path fill="#2d0f15" d="
  M 83.62 75.37
  Q 76.50 77.50 72.55 83.62
  A 0.29 0.29 0.0 0 1 72.01 83.48
  Q 71.93 82.22 71.06 81.30
  A 0.58 0.57 50.1 0 1 71.13 80.45
  L 80.14 73.52
  A 2.69 2.67 29.9 0 1 82.10 73.00
  L 89.97 74.00
  Q 90.76 74.11 90.72 74.90
  L 90.70 75.27
  A 0.44 0.44 0.0 0 1 90.20 75.68
  Q 85.26 74.88 83.62 75.37
  Z" />
  <path fill="#2d0f15" d="
  M 161.00 76.13
  Q 159.43 76.42 160.59 75.33
  L 162.04 73.97
  Q 162.57 73.47 163.17 73.89
  Q 165.27 75.37 166.23 77.73
  Q 166.38 78.08 166.03 78.24
  Q 165.90 78.30 165.77 78.36
  A 0.31 0.31 0.0 0 1 165.35 78.22
  Q 163.99 75.58 161.00 76.13
  Z" />
  <path fill="#2d0f15" d="
  M 101.12 85.52
  Q 101.12 84.14 101.49 83.72
  Q 102.94 82.07 103.44 84.26
  L 104.66 89.59
  Q 104.79 90.14 104.25 89.96
  C 103.06 89.57 100.29 87.82 101.00 86.12
  Q 101.12 85.83 101.12 85.52
  Z" />
  <path fill="#2d0f15" d="
  M 107.55 88.84
  Q 107.14 89.23 106.66 89.02
  Q 106.05 88.76 106.14 88.14
  Q 106.24 87.46 106.86 87.74
  Q 107.35 87.97 107.61 88.44
  Q 107.74 88.66 107.55 88.84
  Z" />
  <path fill="#2d0f15" d="
  M 59.37 94.01
  L 63.65 97.05
  A 0.75 0.75 0.0 0 1 63.95 97.56
  L 64.35 101.73
  Q 64.41 102.28 64.82 102.64
  Q 65.57 103.31 66.50 103.72
  Q 66.70 103.80 66.64 103.98
  L 66.64 103.99
  Q 66.58 104.17 66.40 104.11
  C 61.39 102.62 64.68 99.01 62.10 96.94
  Q 60.49 95.65 58.82 94.44
  Q 58.78 94.42 58.81 94.38
  L 59.03 94.07
  Q 59.17 93.87 59.37 94.01
  Z" />
  <path fill="#2d0f15" d="
  M 65.25 106.43
  C 61.22 106.22 59.90 102.26 60.32 98.93
  Q 60.33 98.82 60.41 98.90
  L 60.65 99.14
  Q 60.75 99.25 60.75 99.39
  Q 60.70 104.53 65.25 106.43
  Z" />
  <path fill="#2d0f15" d="
  M 100.80 105.45
  Q 101.84 106.91 103.51 107.57
  Q 104.18 107.83 104.32 107.12
  Q 104.52 106.08 105.60 105.57
  Q 112.70 102.20 120.49 101.64
  C 122.25 101.51 123.74 102.22 125.31 102.87
  Q 125.81 103.07 126.16 102.65
  L 126.48 102.26
  A 0.27 0.26 -20.8 0 1 126.95 102.47
  Q 126.49 105.12 124.81 107.21
  Q 124.42 107.69 124.20 107.11
  L 124.05 106.72
  Q 123.89 106.31 123.46 106.20
  C 119.41 105.16 115.72 106.58 112.61 107.07
  C 110.45 107.41 105.26 107.88 105.74 111.06
  A 0.34 0.34 0.0 0 1 105.17 111.35
  L 100.62 107.07
  Q 98.40 104.98 101.01 103.41
  L 105.12 100.93
  Q 105.43 100.75 105.55 101.08
  L 105.65 101.35
  Q 105.66 101.38 105.63 101.40
  Q 102.99 102.41 100.92 104.31
  A 0.86 0.86 0.0 0 0 100.80 105.45
  Z" />
  <path fill="#2d0f15" d="
  M 65.25 106.43
  L 68.61 107.18
  Q 69.05 107.28 69.11 107.73
  Q 69.13 107.86 69.13 108.00
  Q 69.13 108.17 68.97 108.13
  Q 66.77 107.70 65.25 106.43
  Z" />
  <path fill="#2d0f15" d="
  M 145.50 134.34
  Q 145.60 134.03 146.02 134.11
  Q 149.41 134.71 152.10 133.50
  Q 152.56 133.29 152.99 133.56
  Q 155.33 134.98 156.28 136.49
  Q 159.23 141.16 162.79 145.40
  A 0.86 0.85 -62.5 0 1 162.99 146.05
  L 162.82 147.76
  Q 162.64 149.61 164.16 148.54
  Q 165.43 147.65 166.92 147.30
  Q 167.75 147.11 167.03 147.56
  Q 164.94 148.88 162.71 149.86
  Q 162.19 150.09 162.23 149.52
  L 162.41 146.61
  Q 162.44 146.04 162.06 145.64
  C 158.90 142.32 156.78 138.33 153.99 134.80
  A 1.56 1.55 66.3 0 0 152.55 134.23
  Q 148.18 134.90 143.74 134.88
  Q 143.72 134.88 143.74 134.88
  L 145.00 134.75
  Q 145.38 134.70 145.50 134.34
  Z" />
  <path fill="#2d0f15" d="
  M 133.71 160.45
  C 137.55 157.61 140.99 155.47 144.33 151.37
  Q 144.55 151.09 144.61 150.73
  L 144.69 150.26
  Q 144.75 149.90 145.08 150.06
  Q 145.30 150.16 145.57 150.04
  Q 145.71 149.98 145.83 149.80
  Q 146.97 148.13 147.59 147.19
  Q 148.74 145.42 147.79 147.30
  C 144.03 154.68 135.96 159.51 129.31 164.26
  C 127.96 165.23 126.41 165.12 127.07 167.45
  Q 128.06 170.97 127.55 174.63
  Q 127.53 174.72 127.45 174.67
  Q 127.42 174.65 127.40 174.65
  Q 127.34 174.63 127.34 174.58
  Q 127.46 170.65 126.42 166.87
  Q 126.28 166.36 126.62 165.96
  C 128.69 163.52 131.76 161.89 133.71 160.45
  Z" />
  <path fill="#2d0f15" d="
  M 162.50 152.88
  Q 161.92 152.82 161.84 152.16
  A 0.22 0.22 0.0 0 1 162.22 151.99
  L 165.79 155.72
  Q 165.87 155.80 165.78 155.89
  L 165.77 155.90
  Q 165.65 156.03 165.52 155.91
  Q 163.94 154.47 162.50 152.88
  Z" />
  <path fill="#2d0f15" d="
  M 161.13 162.04
  Q 160.95 161.36 161.53 161.05
  Q 163.57 159.94 164.70 157.91
  Q 164.79 157.75 164.95 157.84
  L 165.19 157.98
  Q 165.28 158.04 165.21 158.12
  L 160.92 162.61
  Q 160.89 162.65 160.87 162.60
  Q 160.80 162.33 161.03 162.23
  Q 161.17 162.18 161.13 162.04
  Z" />
  <path fill="#2d0f15" d="
  M 53.18 169.51
  A 0.16 0.16 0.0 0 1 53.27 169.30
  L 53.48 169.23
  A 13.14 0.35 -19.8 0 1 65.96 165.10
  L 66.02 165.26
  A 13.14 0.35 -19.8 0 1 53.77 170.04
  L 53.57 170.11
  A 0.16 0.16 0.0 0 1 53.36 170.01
  L 53.18 169.51
  Z" />
  <path fill="#2d0f15" d="
  M 144.49 180.02
  L 142.59 176.70
  Q 142.36 176.30 142.36 175.84
  Q 142.39 173.14 142.39 170.50
  Q 142.38 169.22 141.47 168.56
  Q 141.15 168.32 141.55 168.36
  Q 142.10 168.41 142.41 168.77
  Q 142.64 169.04 142.63 169.54
  C 142.58 172.43 142.14 174.97 143.77 177.55
  Q 148.45 184.98 155.31 190.52
  Q 155.48 190.65 155.35 190.83
  L 155.34 190.84
  Q 155.21 191.01 155.03 190.88
  Q 149.52 186.95 145.93 181.62
  Q 145.29 180.68 144.79 181.70
  L 144.54 182.22
  A 0.35 0.34 -41.0 0 1 143.90 182.18
  Q 143.66 181.42 144.29 180.96
  Q 144.81 180.58 144.49 180.02
  Z" />
  <path fill="#2d0f15" d="
  M 71.57 181.81
  A 3.71 3.66 -82.4 0 0 72.58 183.15
  C 75.09 185.27 76.82 188.35 79.45 190.22
  C 81.00 191.32 84.04 192.64 83.89 194.83
  Q 83.89 194.86 83.88 194.83
  C 83.58 192.86 79.51 190.54 77.86 189.69
  Q 77.42 189.46 77.17 189.03
  C 75.22 185.67 71.64 183.95 70.51 180.55
  Q 69.09 176.31 68.07 171.91
  Q 68.01 171.66 68.26 171.62
  L 68.53 171.57
  A 0.14 0.14 0.0 0 1 68.70 171.69
  Q 69.41 176.97 71.57 181.81
  Z" />
  <ellipse fill="#2d0f15" cx="0.00" cy="0.00" transform="translate(117.36,178.26) rotate(-40.7)" rx="3.42" ry="0.38" />
  <path fill="#2d0f15" d="
  M 29.04 177.24
  Q 29.28 177.07 29.46 177.31
  L 29.63 177.53
  Q 29.72 177.65 29.60 177.74
  C 20.98 184.66 16.80 190.11 9.88 199.91
  Q 9.79 200.04 9.66 199.94
  L 9.44 199.78
  Q 9.23 199.63 9.39 199.43
  C 15.73 191.14 19.62 183.84 29.04 177.24
  Z" />
  <path fill="#2d0f15" d="
  M 91.28 177.41
  C 92.52 177.23 93.03 178.09 93.78 178.11
  Q 93.81 178.11 93.75 178.12
  Q 92.45 178.23 91.24 177.79
  Q 90.50 177.53 91.28 177.41
  Z" />
  <path fill="#2d0f15" d="
  M 111.85 200.00
  L 88.33 200.00
  Q 86.85 198.04 86.20 195.03
  Q 86.10 194.57 86.34 194.16
  Q 86.80 193.38 86.41 192.52
  A 0.61 0.61 0.0 0 1 86.87 191.66
  Q 89.38 191.30 94.12 191.13
  C 99.42 190.94 104.61 186.68 108.73 183.75
  A 5.24 5.23 -59.5 0 1 112.37 182.81
  L 127.32 184.52
  A 1.02 1.01 1.2 0 0 128.45 183.44
  L 128.07 178.30
  A 0.17 0.17 0.0 0 1 128.41 178.24
  Q 129.87 183.30 129.19 188.51
  A 0.59 0.58 -82.9 0 1 128.55 189.01
  C 126.63 188.79 124.93 188.02 123.11 187.96
  Q 117.95 187.78 112.84 187.95
  A 1.50 1.50 0.0 0 0 111.39 189.51
  L 111.85 200.00
  Z" />
</svg>