<svg version="1.1" id="Layer_1" xmlns="http://www.w3.org/2000/svg" xmlns:xlink="http://www.w3.org/1999/xlink" x="0px" y="0px"
	 width="100%" viewBox="0 0 646 515" enable-background="new 0 0 646 515" xml:space="preserve">



<path fill="#73CB8D" opacity="1.000000" stroke="none" 
	d="
M304.993774,171.083618 
	C276.662659,171.346146 255.326218,159.474701 240.893677,135.891251 
	C228.237274,115.210045 240.980804,89.916512 265.103455,87.643127 
	C274.541962,86.753609 283.496918,89.865173 291.801941,94.466080 
	C303.187988,100.773849 312.969666,108.903404 319.851807,120.085747 
	C322.056061,123.667282 323.128601,123.041344 325.163879,119.963356 
	C334.850891,105.313469 347.972778,94.922791 364.810303,89.725304 
	C381.432129,84.594406 394.475769,88.818787 403.657288,101.700691 
	C411.664429,112.934982 410.768799,127.977768 400.847443,141.173798 
	C382.728363,165.273331 358.148804,174.203430 328.820343,170.343552 
	C320.834534,169.292526 313.279663,171.851761 304.993774,171.083618 
z"/>
<path fill="#73CB8D" opacity="1.000000" stroke="none" 
	d="
M226.910614,325.168640 
	C217.057480,317.916595 215.762848,307.487854 215.386185,296.851715 
	C215.079758,288.198242 215.380661,279.524994 215.267090,270.862427 
	C215.145874,261.617401 213.479919,259.480804 204.691345,256.634491 
	C204.533585,256.583405 204.306091,256.617554 204.212433,256.517273 
	C200.262589,252.289276 203.155380,247.131104 202.335281,242.468948 
	C201.961884,240.346237 202.894165,239.367523 205.186584,238.755295 
	C212.982132,236.673447 214.978333,233.844574 215.269775,225.543655 
	C215.655273,214.562790 215.053391,203.581802 215.817993,192.585526 
	C217.567291,167.427399 237.344528,163.268036 253.533203,166.077408 
	C255.384933,166.398743 256.107086,167.304199 256.071808,169.082809 
	C256.035522,170.914719 256.110626,172.748901 256.069885,174.580612 
	C256.007080,177.404037 256.775726,180.720261 255.554260,182.917038 
	C254.193222,185.364868 250.670074,183.400421 248.114639,183.775543 
	C243.114075,184.509567 240.038559,188.112259 239.908081,194.644974 
	C239.678558,206.137070 239.825317,217.636154 239.713074,229.131332 
	C239.617233,238.947174 237.191345,242.832260 228.484802,247.469666 
	C228.715775,247.850037 228.860123,248.444550 229.180115,248.562439 
	C237.119690,251.488083 239.645370,257.789825 239.703918,265.538544 
	C239.786987,276.534515 239.694000,287.531891 239.789413,298.527679 
	C239.877304,308.656586 242.123459,311.016602 252.055603,311.049072 
	C255.065933,311.058899 256.351898,311.833038 256.116699,314.960480 
	C255.917358,317.611267 256.080719,320.289032 256.076843,322.954865 
	C256.067688,329.281036 255.878006,329.473328 249.340012,329.819733 
	C241.582703,330.230774 233.994583,329.796143 226.910614,325.168640 
z"/>
<path fill="#73CB8D" opacity="1.000000" stroke="none" 
	d="
M421.415558,322.415955 
	C412.730438,330.438080 402.501801,330.522766 392.023163,329.475220 
	C389.923065,329.265289 388.775055,328.188171 388.845581,325.856171 
	C388.961304,322.030273 388.992645,318.193573 388.836761,314.370483 
	C388.724518,311.617859 389.996429,310.871582 392.458832,311.109924 
	C402.842896,312.114929 405.287994,307.107361 405.234619,297.974731 
	C405.177216,288.151794 405.327362,278.327087 405.208740,268.505280 
	C405.099670,259.474213 406.497681,251.388321 418.198669,247.803055 
	C406.338867,243.907639 405.048523,235.515503 405.204254,226.217377 
	C405.363129,216.729828 405.291168,207.236801 405.204620,197.747223 
	C405.104095,186.725494 402.693451,184.167938 391.946411,183.967239 
	C389.385406,183.919418 388.780731,182.921326 388.861206,180.715347 
	C388.940094,178.553909 388.869781,176.387100 388.868927,174.222656 
	C388.865570,165.776520 388.866180,165.776520 397.204224,165.317871 
	C416.652527,164.248047 427.704376,174.109161 429.134918,193.407349 
	C429.875275,203.394363 429.398163,213.371643 429.590912,223.351395 
	C429.789001,233.609756 431.178772,234.883453 440.456024,239.156601 
	C445.592865,241.522659 441.787079,247.179321 442.586182,251.261551 
	C442.940033,253.069336 443.639618,255.555725 440.554688,256.631256 
	C430.945679,259.981232 429.772583,261.798615 429.594604,272.043671 
	C429.418365,282.190613 429.905273,292.338989 429.119751,302.488983 
	C428.549896,309.851532 426.558594,316.522430 421.415558,322.415955 
z"/>
<path fill="#66C67D" opacity="1.000000" stroke="none" 
	d="
M345.525208,223.447617 
	C343.598694,223.238037 342.071747,223.191101 340.639282,222.799042 
	C337.434296,221.921844 335.409576,219.809631 335.239288,216.417725 
	C335.058868,212.823990 336.933167,210.317032 340.262085,209.213684 
	C342.116455,208.599060 344.187317,208.437393 346.163177,208.423080 
	C356.328857,208.349503 366.495636,208.436859 376.661377,208.368729 
	C381.117828,208.338867 385.058350,209.315323 387.132751,213.654938 
	C389.058624,217.683777 387.090271,221.175720 384.786224,224.304474 
	C375.897278,236.375183 366.890656,248.359207 357.939667,260.384308 
	C357.263794,261.292358 355.993439,262.163727 356.403442,263.338623 
	C356.987274,265.011688 358.700928,264.218414 359.896851,264.233551 
	C366.562195,264.317719 373.230621,264.192078 379.894958,264.310669 
	C385.903534,264.417603 389.127594,267.221893 389.007690,271.929657 
	C388.891785,276.480713 385.880798,278.945038 379.937439,278.983582 
	C367.938507,279.061432 355.938690,278.985504 343.939301,279.009521 
	C340.201385,279.017029 336.975098,278.045898 335.094727,274.530762 
	C333.101074,270.803833 334.209839,267.492920 336.586060,264.326447 
	C345.583588,252.336700 354.546844,240.321121 363.494904,228.294388 
	C364.343231,227.154160 365.970764,226.068481 365.075592,224.432846 
	C364.217896,222.865631 362.386047,223.506348 360.966675,223.486343 
	C355.967804,223.415909 350.967438,223.455673 345.525208,223.447617 
z"/>
<path fill="#74CC8E" opacity="1.000000" stroke="none" 
	d="
M347.999390,310.064087 
	C353.323151,310.064545 358.150421,310.172699 362.969727,310.023499 
	C365.688721,309.939301 366.941254,310.757996 366.825226,313.678864 
	C366.653656,317.996948 366.644592,322.332733 366.827515,326.649933 
	C366.962158,329.827209 365.493042,330.599335 362.624146,330.592651 
	C335.843079,330.530182 309.061768,330.526459 282.280701,330.592560 
	C279.315521,330.599884 278.030243,329.618530 278.170197,326.545074 
	C278.343994,322.727081 278.444031,318.877045 278.146820,315.074371 
	C277.843292,311.190491 279.088318,309.935608 283.125671,309.972534 
	C304.582123,310.168610 326.041290,310.064331 347.999390,310.064087 
z"/>
<path fill="#66C67D" opacity="1.000000" stroke="none" 
	d="
M276.084015,239.999985 
	C276.083435,246.655090 276.307465,252.821365 276.002533,258.961365 
	C275.802338,262.992126 276.884277,264.756500 281.201508,264.345734 
	C284.827545,264.000732 288.520142,264.158783 292.172272,264.329407 
	C297.774689,264.591156 300.970032,267.523224 300.779846,271.955566 
	C300.599060,276.170135 297.404297,278.878235 292.072632,278.972473 
	C285.087891,279.095886 278.098969,279.054352 271.112640,278.993378 
	C263.248962,278.924774 259.817993,275.725128 259.579010,267.833435 
	C259.357483,260.520355 259.513489,253.195694 259.510101,245.876129 
	C259.506165,237.392044 259.476349,228.907715 259.534576,220.424026 
	C259.548157,218.440933 259.676697,216.418182 260.091370,214.486450 
	C261.033752,210.096222 264.670685,207.162628 268.507019,207.449890 
	C272.332367,207.736359 275.749390,211.123077 275.897278,215.551285 
	C276.163635,223.527374 276.042969,231.516388 276.084015,239.999985 
z"/>
<path fill="#74CC8E" opacity="1.000000" stroke="none" 
	d="
M162.050781,402.652863 
	C158.440369,401.918976 156.995850,399.119751 155.156235,396.819672 
	C150.721222,391.274445 146.364914,385.666321 141.392883,379.340576 
	C140.060913,384.827148 140.928253,389.407043 140.620056,393.904785 
	C140.376266,397.462708 141.099670,402.314545 136.076614,402.447968 
	C130.678345,402.591370 131.094986,397.767120 131.096451,393.899384 
	C131.099701,385.410706 131.134918,376.921814 131.081039,368.433472 
	C131.063171,365.618134 131.336731,362.905426 134.326431,361.780579 
	C137.478317,360.594635 139.203781,362.923553 140.886597,365.046722 
	C145.946747,371.430969 151.010681,377.812256 156.518143,384.755676 
	C157.516876,379.534332 156.814224,374.835602 157.057404,370.195312 
	C157.152542,368.379944 157.095154,366.503387 157.556931,364.774841 
	C158.050873,362.925873 159.468811,361.492889 161.503723,361.465881 
	C163.665237,361.437195 165.396027,362.548462 165.964508,364.757874 
	C166.374023,366.349426 166.627289,368.026215 166.639893,369.667358 
	C166.705017,378.155518 166.676285,386.644470 166.667175,395.133148 
	C166.663635,398.431519 166.326004,401.559814 162.050781,402.652863 
z"/>
<path fill="#77CD90" opacity="1.000000" stroke="none" 
	d="
M402.567871,389.238647 
	C400.412903,379.609802 401.648224,371.152527 409.522308,365.024384 
	C418.670898,357.904236 431.554779,360.278107 437.977051,369.863922 
	C444.272827,379.260803 441.061310,394.779510 431.649933,400.437592 
	C421.807343,406.355011 409.063873,402.473724 403.670441,391.904694 
	C403.293762,391.166565 403.014160,390.378845 402.567871,389.238647 
z"/>
<path fill="#76CD8F" opacity="1.000000" stroke="none" 
	d="
M464.451843,398.616699 
	C453.699158,389.251312 455.921692,370.770264 466.065277,364.292725 
	C472.971649,359.882416 482.112274,359.861298 488.620300,364.618378 
	C495.839478,369.895355 497.938110,377.479248 496.534393,385.864166 
	C493.861633,401.829834 478.632538,407.923340 464.451843,398.616699 
z"/>
<path fill="#7ACE93" opacity="1.000000" stroke="none" 
	d="
M232.126892,373.096588 
	C232.156036,370.450958 231.991608,368.264801 232.262482,366.133972 
	C232.610474,363.396454 234.163696,361.335388 237.123077,361.431366 
	C239.792938,361.517975 241.160019,363.485809 241.625488,366.005829 
	C241.774765,366.814026 241.600845,367.681702 241.748428,368.490479 
	C242.261581,371.302551 240.049789,375.612946 243.089081,376.687927 
	C247.340225,378.191437 252.288620,377.478394 256.908386,376.897186 
	C258.329437,376.718384 258.092896,375.099274 258.122711,373.975525 
	C258.193329,371.316132 258.025848,368.636871 258.294189,366.000183 
	C258.554047,363.447205 260.098785,361.519379 262.764893,361.431396 
	C265.703247,361.334412 267.585358,363.343536 267.631561,366.088745 
	C267.810547,376.729919 267.809906,387.377899 267.623749,398.018890 
	C267.575317,400.786530 265.625305,402.708191 262.700256,402.618927 
	C260.013428,402.536957 258.590576,400.688904 258.253632,398.068054 
	C258.148071,397.247040 258.239502,396.401184 258.140076,395.578857 
	C257.768188,392.503265 259.698853,387.957855 257.199402,386.631134 
	C253.207535,384.512146 248.121002,385.878632 243.500549,385.997040 
	C241.655380,386.044312 241.777710,387.708801 241.756271,389.021027 
	C241.712814,391.681976 241.792389,394.346130 241.698318,397.004639 
	C241.584259,400.228058 240.116348,402.685364 236.674500,402.592834 
	C233.453262,402.506226 232.196625,400.007355 232.171265,397.034851 
	C232.104568,389.217224 232.135040,381.398773 232.126892,373.096588 
z"/>
<path fill="#77CD91" opacity="1.000000" stroke="none" 
	d="
M569.954895,391.647217 
	C570.772034,388.505249 569.176514,387.300964 566.887207,386.535248 
	C564.203796,385.637695 561.440247,384.905060 558.876221,383.738892 
	C551.358948,380.319733 549.723633,371.521576 555.377625,365.556549 
	C559.822449,360.867218 569.861877,359.588531 575.387695,362.925232 
	C577.788208,364.374756 578.549438,366.433899 577.488220,368.864166 
	C576.509094,371.106354 574.523438,371.871796 572.080811,371.206085 
	C570.165344,370.684082 568.326843,369.746460 566.252991,370.026031 
	C564.504456,370.261749 562.903381,370.805969 562.741943,372.888245 
	C562.603149,374.678986 563.799805,375.542816 565.352112,376.067261 
	C568.028809,376.971588 570.795471,377.695190 573.339966,378.887939 
	C579.175232,381.623291 581.180298,384.993439 580.710388,390.580078 
	C580.196350,396.691681 576.800354,401.105408 570.972534,402.456421 
	C566.033569,403.601318 561.034424,403.348419 556.253418,401.395660 
	C553.127930,400.119080 551.053589,397.938416 552.369080,394.426941 
	C553.627563,391.067505 556.628967,391.877899 559.235901,392.506714 
	C562.820496,393.371338 566.437195,395.984467 569.954895,391.647217 
z"/>
<path fill="#76CD8F" opacity="1.000000" stroke="none" 
	d="
M199.972977,362.011414 
	C202.955612,362.015472 205.454880,361.908386 207.940613,362.046021 
	C213.699783,362.364899 215.723663,366.030212 212.460205,370.760620 
	C208.030624,377.181335 203.210968,383.332458 198.587357,389.620361 
	C197.938660,390.502563 196.634995,391.307098 197.350555,392.601532 
	C198.020096,393.812714 199.424332,393.324402 200.524063,393.358246 
	C203.677856,393.455383 206.853119,393.271942 209.983871,393.573364 
	C212.649261,393.830048 214.972427,395.132935 214.680878,398.287903 
	C214.417572,401.137360 212.196609,401.963135 209.613968,401.962494 
	C202.799515,401.960754 195.979996,402.116455 189.172195,401.901794 
	C183.673096,401.728363 181.928360,398.026337 185.181625,393.463013 
	C189.808395,386.973145 194.682800,380.660095 199.422134,374.249847 
	C200.070068,373.373474 201.430557,372.481171 200.519379,371.301270 
	C200.073959,370.724518 198.727188,370.711731 197.780304,370.679199 
	C194.957886,370.582306 192.120667,370.745514 189.309708,370.534485 
	C186.663773,370.335846 184.176178,369.375000 184.311340,366.157104 
	C184.440781,363.074615 186.684830,362.033966 189.510986,362.027496 
	C192.835144,362.019867 196.159302,362.016571 199.972977,362.011414 
z"/>
<path fill="#76CD8F" opacity="1.000000" stroke="none" 
	d="
M303.689484,377.890747 
	C307.236725,377.798096 309.610413,378.986694 309.353363,382.364929 
	C309.086517,385.872253 306.158020,385.845642 303.367126,386.132141 
	C300.788605,386.396820 296.465424,383.961273 296.632080,389.759216 
	C296.701843,392.185242 297.349945,393.484467 300.039368,393.407837 
	C302.347504,393.342133 304.696808,393.446716 306.970856,393.821991 
	C309.188782,394.187958 310.509491,395.818695 310.405182,398.070068 
	C310.300507,400.330261 308.882568,401.817047 306.559845,401.868561 
	C301.743317,401.975372 296.915985,402.057678 292.106262,401.848114 
	C288.691864,401.699341 287.162415,399.378296 287.145630,396.126007 
	C287.097595,386.818481 287.080200,377.510284 287.143707,368.202972 
	C287.171204,364.170929 289.391663,362.099731 293.400787,362.046051 
	C297.389069,361.992584 301.379181,361.992615 305.367432,362.046204 
	C308.198975,362.084229 310.408325,363.322937 310.468567,366.342316 
	C310.526031,369.221680 308.146606,370.142792 305.721863,370.524109 
	C304.420654,370.728760 303.068542,370.668793 301.741486,370.637909 
	C298.974976,370.573486 296.459106,370.331055 296.576324,374.549042 
	C296.692017,378.712158 299.418610,377.755402 301.756287,377.882568 
	C302.253479,377.909607 302.753357,377.887817 303.689484,377.890747 
z"/>
<path fill="#79CD92" opacity="1.000000" stroke="none" 
	d="
M358.905212,364.661499 
	C359.945984,362.663269 361.408936,362.045258 363.189240,362.042328 
	C369.665070,362.031769 376.140991,362.011230 382.616638,362.043182 
	C385.203766,362.055939 387.310791,363.027496 387.551819,365.880585 
	C387.793335,368.739410 385.881500,370.487091 383.326080,370.345154 
	C377.998322,370.049286 377.637238,372.939697 377.816162,377.119537 
	C378.092865,383.583649 377.880524,390.068604 377.880066,396.544739 
	C377.879852,399.697510 376.851257,402.462250 373.370911,402.584625 
	C369.645142,402.715698 368.280090,399.957153 368.252380,396.577118 
	C368.195251,389.603241 368.083618,382.624817 368.277832,375.656128 
	C368.372528,372.258911 367.752747,370.437439 363.755890,370.506989 
	C360.565216,370.562561 357.717957,369.291595 358.905212,364.661499 
z"/>
<path fill="#7ACE93" opacity="1.000000" stroke="none" 
	d="
M64.145454,370.249512 
	C64.149544,369.119843 64.151543,368.454193 64.156792,367.788513 
	C64.183136,364.446381 65.298950,361.474152 69.004822,361.482605 
	C72.700577,361.491028 73.828362,364.441162 73.826576,367.799591 
	C73.822952,374.622864 74.018448,381.453369 73.757401,388.266541 
	C73.611176,392.083130 74.619659,393.713593 78.729553,393.443939 
	C82.418633,393.201843 87.578201,392.613373 87.434608,398.084991 
	C87.293823,403.449615 82.126907,401.699188 78.748215,401.960236 
	C76.432289,402.139191 74.090622,402.020905 71.761299,401.983459 
	C65.699059,401.886108 64.212631,400.412170 64.161774,394.178833 
	C64.097961,386.357544 64.145424,378.535339 64.145454,370.249512 
z"/>
<path fill="#76CD8F" opacity="1.000000" stroke="none" 
	d="
M514.943237,378.012390 
	C514.948303,374.188599 514.980347,370.861542 514.950989,367.535004 
	C514.922424,364.307800 516.158386,361.638855 519.532776,361.524872 
	C523.099670,361.404358 524.095337,364.172455 524.079834,367.382538 
	C524.045166,374.535065 524.226379,381.692139 524.020325,388.838745 
	C523.921875,392.254456 524.923035,393.760529 528.506653,393.430542 
	C530.461670,393.250519 532.488098,393.523010 534.449097,393.814880 
	C536.679749,394.146912 538.083801,395.457794 537.994568,397.872253 
	C537.907715,400.224304 536.505981,401.737701 534.281555,401.814240 
	C529.302124,401.985596 524.288574,402.118164 519.333374,401.717468 
	C515.908752,401.440552 514.947632,398.613190 514.953552,395.476227 
	C514.964111,389.820618 514.948120,384.164978 514.943237,378.012390 
z"/>
<path fill="#77CD91" opacity="1.000000" stroke="none" 
	d="
M111.316940,399.854462 
	C109.828293,402.292175 108.011810,403.219818 105.630592,402.324646 
	C103.526093,401.533447 102.461182,399.665680 102.441635,397.619019 
	C102.341461,387.132477 102.293968,376.641327 102.527222,366.158478 
	C102.585403,363.543671 104.279961,361.228607 107.345749,361.448242 
	C110.231216,361.654907 111.829590,363.733734 111.815536,366.555573 
	C111.760857,377.532410 112.390610,388.517822 111.316940,399.854462 
z"/>
<path fill="#6AC781" opacity="1.000000" stroke="none" 
	d="
M326.657440,248.478699 
	C327.095398,253.932739 324.090759,256.202240 319.635864,256.587067 
	C315.531555,256.941650 311.356720,256.835052 307.237610,256.560974 
	C303.268372,256.296844 300.645142,253.952759 300.581665,249.896652 
	C300.520813,246.006546 303.129181,243.721970 306.817535,243.425339 
	C311.254333,243.068512 315.750946,243.107666 320.199249,243.364532 
	C323.142395,243.534500 325.550018,245.046234 326.657440,248.478699 
z"/>
<path fill="#77CD91" opacity="1.000000" stroke="none" 
	d="
M339.100128,389.389130 
	C336.067566,389.515656 333.405823,389.890961 330.807007,389.128815 
	C329.041748,388.611145 327.959137,387.476532 327.961548,385.541473 
	C327.963898,383.628204 329.001801,382.440155 330.755951,381.893005 
	C333.182404,381.136261 335.683044,381.328979 338.149384,381.590637 
	C340.228027,381.811218 342.168610,382.613617 342.591797,384.904602 
	C343.020996,387.227966 341.626099,388.610107 339.100128,389.389130 
z"/>
<path fill="#FAF7FA" opacity="1.000000" stroke="none" 
	d="
M378.631531,107.846504 
	C387.434357,109.858017 391.152008,116.076859 387.688690,123.899895 
	C381.312347,138.303040 369.667511,146.442184 354.523926,149.895859 
	C349.138214,151.124146 343.671967,151.214417 338.182098,151.183853 
	C335.780853,151.170471 335.038757,150.294769 335.274292,147.868881 
	C337.192108,128.117279 358.581818,108.105576 378.631531,107.846504 
z"/>
<path fill="#FAF7FA" opacity="1.000000" stroke="none" 
	d="
M308.393799,151.027374 
	C290.704865,151.902710 275.351166,147.733017 263.583710,134.151566 
	C260.730408,130.858429 258.314911,127.317650 256.925629,123.142517 
	C254.166138,114.849571 259.056183,107.574265 267.729065,107.881592 
	C280.956757,108.350334 290.701599,115.889725 299.203827,125.061783 
	C305.093811,131.415771 308.125366,139.366440 309.533203,147.904434 
	C309.717957,149.024796 310.242737,150.206299 308.393799,151.027374 
z"/>
<path fill="#F8F6F8" opacity="1.000000" stroke="none" 
	d="
M415.644775,392.396667 
	C411.060181,387.617584 411.079468,382.092865 412.424835,376.670471 
	C413.386597,372.794373 416.089386,370.058716 420.582825,369.734772 
	C425.225647,369.400116 428.293884,371.479706 429.950439,375.626740 
	C431.758575,380.153107 431.626678,384.814911 429.690735,389.239441 
	C427.626831,393.956482 421.238281,397.012817 415.644775,392.396667 
z"/>
<path fill="#F8F6F8" opacity="1.000000" stroke="none" 
	d="
M480.273499,370.120605 
	C487.533264,374.650543 489.192383,385.449371 483.943970,391.572876 
	C480.182556,395.961548 473.694366,395.789337 470.098389,391.205444 
	C466.738312,386.922272 466.340607,378.895447 469.130188,374.222260 
	C471.655151,369.992340 475.431061,369.200470 480.273499,370.120605 
z"/>
</svg>